<svg width="200" height="134" viewBox="0 0 200 134" fill="none" xmlns="http://www.w3.org/2000/svg">
<g id="320">
<path id="Vector" d="M101.467 128.502C135.555 128.502 163.188 100.856 163.188 66.7542C163.188 32.6521 135.555 5.00684 101.467 5.00684C67.3799 5.00684 39.7466 32.6521 39.7466 66.7542C39.7466 100.856 67.3799 128.502 101.467 128.502Z" stroke="url(#paint0_linear_766_7242)" stroke-width="0.704972"/>
<path id="Vector_2" d="M98.8127 83.6094C94.8291 82.737 93.0913 78.7009 91.7031 71.8097C90.66 66.6267 89.6413 61.9209 90.8549 56.051C91.7027 51.9428 93.4513 48.3633 95.3545 45.5598C97.4158 42.5223 99.5978 38.4939 103.154 39.0612C108.041 39.8411 115.272 50.7485 112.952 64.1821C110.402 78.9392 102.707 84.4638 98.8127 83.6094Z" fill="url(#paint1_linear_766_7242)"/>
<path id="Vector_3" d="M169.348 77.5054C163.715 80.301 156.238 76.7064 156.238 76.7064C156.238 76.7064 157.9 68.5811 163.536 65.7894C169.169 62.9938 176.642 66.5844 176.642 66.5844C176.642 66.5844 174.981 74.71 169.348 77.5054Z" fill="url(#paint2_linear_766_7242)"/>
<path id="Vector_4" d="M33.6742 96.121C41.0344 100.534 51.5942 96.4547 51.5942 96.4547C51.5942 96.4547 50.2135 85.2211 42.8487 80.813C35.4884 76.3998 24.9331 80.4744 24.9331 80.4744C24.9331 80.4744 26.3138 91.7077 33.6742 96.121Z" fill="url(#paint3_linear_766_7242)"/>
<path id="Vector_5" d="M166.49 32.3717C164.792 32.3717 163.415 33.7493 163.415 35.4488C163.415 37.1482 164.792 38.5259 166.49 38.5259C168.189 38.5259 169.566 37.1482 169.566 35.4488C169.566 33.7493 168.189 32.3717 166.49 32.3717Z" fill="#B89BBF"/>
<path id="Vector_6" d="M75.032 118.849C73.1209 118.849 71.5717 120.399 71.5717 122.311C71.5717 124.223 73.1209 125.772 75.032 125.772C76.943 125.772 78.4922 124.223 78.4922 122.311C78.4922 120.399 76.943 118.849 75.032 118.849Z" fill="#B89BBF"/>
<path id="Vector_7" d="M32.4424 44.984C30.8498 44.984 29.5588 43.6924 29.5588 42.0992C29.5588 40.5059 30.8498 39.2144 32.4424 39.2144C34.0349 39.2144 35.3259 40.5059 35.3259 42.0992C35.3259 43.6924 34.0349 44.984 32.4424 44.984Z" fill="#B89BBF"/>
<path id="Vector_8" d="M146.673 74.308C145.93 74.308 145.327 73.7052 145.327 72.9616C145.327 72.218 145.93 71.6152 146.673 71.6152C147.416 71.6152 148.019 72.218 148.019 72.9616C148.019 73.7052 147.416 74.308 146.673 74.308Z" fill="#B89BBF"/>
<path id="Vector_9" d="M113 113.616C112.045 113.616 111.27 112.841 111.27 111.885C111.27 110.929 112.045 110.154 113 110.154C113.956 110.154 114.73 110.929 114.73 111.885C114.73 112.841 113.956 113.616 113 113.616Z" fill="#E1E4E5"/>
<path id="Vector_10" d="M31.9264 101.699C30.5462 101.699 29.4273 100.58 29.4273 99.1989C29.4273 97.8181 30.5462 96.6987 31.9264 96.6987C33.3066 96.6987 34.4255 97.8181 34.4255 99.1989C34.4255 100.58 33.3066 101.699 31.9264 101.699Z" fill="#E1E4E5"/>
<path id="Vector_11" d="M56.5594 25.603C55.509 25.603 54.6574 24.7511 54.6574 23.7002C54.6574 22.6493 55.509 21.7974 56.5594 21.7974C57.6099 21.7974 58.4614 22.6493 58.4614 23.7002C58.4614 24.7511 57.6099 25.603 56.5594 25.603Z" fill="#E1E4E5"/>
<path id="Vector_12" d="M80.3939 85.4382C79.226 85.4382 78.2792 84.491 78.2792 83.3226C78.2792 82.1542 79.226 81.207 80.3939 81.207C81.5618 81.207 82.5085 82.1542 82.5085 83.3226C82.5085 84.491 81.5618 85.4382 80.3939 85.4382Z" fill="#E1E4E5"/>
<path id="Vector_13" d="M39.487 59.1851C39.7584 60.1985 39.1573 61.2402 38.1443 61.5118C37.1313 61.7833 36.09 61.1819 35.8186 60.1685C35.5472 59.155 36.1483 58.1134 37.1613 57.8418C38.1743 57.5703 39.2156 58.1717 39.487 59.1851Z" fill="#E1E4E5"/>
<path id="Vector_14" d="M85.8725 21.8803C84.4773 21.8803 83.3462 20.7488 83.3462 19.353C83.3462 17.9572 84.4773 16.8257 85.8725 16.8257C87.2677 16.8257 88.3987 17.9572 88.3987 19.353C88.3987 20.7488 87.2677 21.8803 85.8725 21.8803Z" fill="#E1E4E5"/>
<path id="Vector_15" d="M128.951 93.9954C127.878 93.9954 127.008 93.2991 127.008 92.4401C127.008 91.5811 127.878 90.8848 128.951 90.8848C130.024 90.8848 130.894 91.5811 130.894 92.4401C130.894 93.2991 130.024 93.9954 128.951 93.9954Z" fill="#E1E4E5"/>
<path id="Vector_16" d="M132.642 10.9208C133.207 13.03 131.956 15.198 129.847 15.7631C127.739 16.3283 125.572 15.0766 125.007 12.9674C124.442 10.8583 125.693 8.69029 127.802 8.12514C129.91 7.55999 132.077 8.81167 132.642 10.9208Z" fill="#E1E4E5"/>
<path id="Vector_17" d="M155.613 92.0596H155.663C155.964 96.3268 159.136 96.3923 159.136 96.3923C159.136 96.3923 155.639 96.4606 155.639 101.391C155.639 96.4606 152.141 96.3923 152.141 96.3923C152.141 96.3923 155.311 96.3268 155.613 92.0596ZM53.4037 114.695H53.4488C53.7159 118.557 56.5306 118.616 56.5306 118.616C56.5306 118.616 53.427 118.678 53.427 123.141C53.427 118.678 50.3232 118.616 50.3232 118.616C50.3232 118.616 53.1366 118.557 53.4037 114.695Z" fill="#E1E4E5"/>
<path id="Vector_18" d="M121.054 70.0225C134.402 70.0225 145.222 59.1974 145.222 45.844C145.222 32.4906 134.402 21.6655 121.054 21.6655C107.707 21.6655 96.8862 32.4906 96.8862 45.844C96.8862 59.1974 107.707 70.0225 121.054 70.0225Z" fill="#B89BBF"/>
<path id="Vector_19" d="M130.767 47.4554H121.1V31.3364" stroke="white" stroke-width="4.69981" stroke-linejoin="round"/>
<path id="Vector_20" d="M53.8092 47.5744C52.4587 42.4884 56.5101 37.7842 61.7703 37.7842H73.119C75.1625 37.7842 76.911 39.2275 77.3965 41.2132C78.6961 46.528 80.4765 51.5566 82.9107 56.2973C83.9621 58.3446 83.4078 60.8969 81.4936 62.1736L78.3447 64.2739C77.3867 64.9126 77.1012 66.1967 77.7183 67.1689C83.8005 76.7548 90.1565 83.1134 99.7381 89.1984C100.71 89.8156 101.993 89.5299 102.632 88.5717L104.731 85.4212C106.007 83.5062 108.559 82.9517 110.605 84.0035C115.344 86.439 120.37 88.22 125.683 89.5201C127.667 90.0059 129.11 91.7553 129.11 93.7995V105.153C129.11 110.416 124.408 114.469 119.324 113.118C87.4136 104.637 62.2865 79.4987 53.8092 47.5744Z" fill="#B89BBF" stroke="#B89BBF" stroke-width="3.5571"/>
</g>
<defs>
<linearGradient id="paint0_linear_766_7242" x1="104.114" y1="198.487" x2="100.283" y2="-130.453" gradientUnits="userSpaceOnUse">
<stop stop-color="white"/>
<stop offset="1" stop-color="#EEEEEE"/>
</linearGradient>
<linearGradient id="paint1_linear_766_7242" x1="72.8471" y1="77.4677" x2="144.076" y2="37.2484" gradientUnits="userSpaceOnUse">
<stop stop-color="white"/>
<stop offset="1" stop-color="#EEEEEE"/>
</linearGradient>
<linearGradient id="paint2_linear_766_7242" x1="147.716" y1="86.2256" x2="194.194" y2="49.4775" gradientUnits="userSpaceOnUse">
<stop stop-color="white"/>
<stop offset="1" stop-color="#EEEEEE"/>
</linearGradient>
<linearGradient id="paint3_linear_766_7242" x1="62.1567" y1="110.327" x2="2.90912" y2="55.302" gradientUnits="userSpaceOnUse">
<stop stop-color="white"/>
<stop offset="1" stop-color="#EEEEEE"/>
</linearGradient>
</defs>
</svg>
