<svg width="200" height="134" viewBox="0 0 200 134" fill="none" xmlns="http://www.w3.org/2000/svg">
<g id="4">
<path id="Vector" d="M159.798 56.6283C163.46 44.5504 144.018 36.8751 144.018 36.8751C144.018 36.8751 120.888 47.5479 117.178 45.8252C113.467 44.1025 135.174 32.8358 135.174 32.8358C128.909 28.0188 106.805 25.5609 106.805 25.5609C106.805 25.5609 94.6956 47.321 91.523 44.7372C88.3501 42.1536 103.228 26.016 103.228 26.016C95.5647 23.9153 84.8327 27.6787 84.8327 27.6787C69.6361 35.2322 80.1158 54.3656 80.1158 54.3656C80.1158 54.3656 75.7572 61.8166 65.993 67.3808C65.993 67.3808 64.0056 68.2927 61.3225 70.2782L63.081 71.3792C63.5091 71.0047 63.9532 70.6489 64.4121 70.3129C64.4145 70.31 64.4178 70.3078 64.4214 70.3067C64.429 70.302 64.4336 70.2974 64.4414 70.2927C64.845 70.0197 65.2505 69.7495 65.6578 69.4821L65.6594 69.4806L65.661 69.479C66.8565 68.7614 67.7067 68.2127 68.2856 67.7952L68.2901 67.7905C71.967 65.4935 76.9778 62.6405 79.0892 62.7065C79.0892 62.7065 79.0654 62.3108 79.2165 61.6636C79.1767 61.9962 79.1321 62.3428 79.0892 62.7065C78.0641 71.0457 92.4483 81.5433 101.913 85.0706C111.378 88.5979 109.202 83.9433 107.086 77.2753C104.97 70.607 94.8738 65.6976 93.0205 62.442C91.167 59.1865 96.1938 60.2372 101.519 64.1671C106.841 68.0968 106.141 75.4418 114.636 81.9553C123.131 88.469 140.643 75.7759 140.643 75.7759C133.194 73.8102 124.162 63.3661 125.077 60.9462C125.993 58.5247 142.42 69.1042 145.404 70.073C148.392 71.0437 156.136 68.7062 159.798 56.6283Z" fill="url(#paint0_linear_766_7201)"/>
<path id="Vector_2" d="M55.2021 45.8186C55.2021 41.2017 58.9433 37.459 63.5584 37.459H129.479C134.093 37.459 137.835 41.2017 137.835 45.8186V97.1379C137.835 101.755 134.093 105.498 129.479 105.498H63.5584C58.9433 105.498 55.2021 101.755 55.2021 97.1379V45.8186Z" fill="#B89BBF"/>
<path id="Vector_3" d="M64.8346 46.0512C65.7961 46.0512 66.5755 45.2714 66.5755 44.3095C66.5755 43.3476 65.7961 42.5679 64.8346 42.5679C63.8732 42.5679 63.0938 43.3476 63.0938 44.3095C63.0938 45.2714 63.8732 46.0512 64.8346 46.0512Z" fill="white"/>
<path id="Vector_4" d="M70.8698 46.0512C71.8313 46.0512 72.6107 45.2714 72.6107 44.3095C72.6107 43.3476 71.8313 42.5679 70.8698 42.5679C69.9083 42.5679 69.1289 43.3476 69.1289 44.3095C69.1289 45.2714 69.9083 46.0512 70.8698 46.0512Z" fill="white"/>
<path id="Vector_5" d="M76.905 46.0512C77.8664 46.0512 78.6458 45.2714 78.6458 44.3095C78.6458 43.3476 77.8664 42.5679 76.905 42.5679C75.9435 42.5679 75.1641 43.3476 75.1641 44.3095C75.1641 45.2714 75.9435 46.0512 76.905 46.0512Z" fill="white"/>
<path id="Vector_6" d="M117.641 83.6704H64.9509C63.9253 83.6704 63.094 84.5021 63.094 85.5281C63.094 86.5541 63.9253 87.3858 64.9509 87.3858H117.641C118.666 87.3858 119.498 86.5541 119.498 85.5281C119.498 84.5021 118.666 83.6704 117.641 83.6704Z" fill="white"/>
<path id="Vector_7" d="M113.579 72.7559H65.0669C63.9773 72.7559 63.094 73.6395 63.094 74.7296V74.7298C63.094 75.8199 63.9773 76.7036 65.0669 76.7036H113.579C114.668 76.7036 115.552 75.8199 115.552 74.7298V74.7296C115.552 73.6395 114.668 72.7559 113.579 72.7559Z" fill="white"/>
<path id="Vector_8" d="M120.194 61.6094H64.9509C63.9253 61.6094 63.094 62.4411 63.094 63.4671C63.094 64.493 63.9253 65.3248 64.9509 65.3248H120.194C121.22 65.3248 122.051 64.493 122.051 63.4671C122.051 62.4411 121.22 61.6094 120.194 61.6094Z" fill="white"/>
<path id="Vector_9" d="M40.9219 117.557C40.739 117.061 43.9296 104.312 44.3559 103.883C44.7832 103.455 58.5501 103.19 58.5501 103.19C58.5501 103.19 64.7534 97.341 69.8828 94.5096C71.9056 93.3911 74.6045 92.7204 74.9477 93.7455C75.1608 94.3806 74.2234 95.6094 73.0316 96.8477C73.029 96.8517 73.0248 96.8553 73.0208 96.8588C71.3616 98.5811 69.2194 100.314 69.0179 100.477C69.0065 100.485 69.0023 100.488 69.0023 100.488C69.0023 100.488 80.3196 100.652 81.9943 100.793C83.6699 100.93 85.8788 101.027 85.9225 102.188C85.9636 103.256 82.9552 103.686 82.7763 103.712C82.963 103.71 86.9008 103.686 87.077 105.206C87.2076 106.336 82.8963 107.252 82.769 107.277C82.8705 107.278 84.8052 107.289 84.7674 108.195C84.7048 109.684 80.3359 110.249 80.1574 110.272C80.2523 110.275 81.8061 110.323 81.7005 111.138C81.4388 113.155 66.457 114.925 61.9139 115.335C57.3665 115.743 41.1063 118.054 40.9219 117.557Z" fill="#FFF5EC"/>
<path id="Vector_10" d="M145.262 90.1719H160.814V105.498H145.262V90.1719Z" fill="url(#paint1_linear_766_7201)"/>
<path id="Vector_11" d="M162.439 86.2241H151.529C150.247 86.2241 149.208 87.2638 149.208 88.5462V99.2282C149.208 100.511 150.247 101.55 151.529 101.55H162.439C163.721 101.55 164.76 100.511 164.76 99.2282V88.5462C164.76 87.2638 163.721 86.2241 162.439 86.2241Z" fill="#B89BBF"/>
<path id="Vector_12" d="M160.705 44.3129L158.589 42.1967C157.683 41.2898 156.213 41.2898 155.307 42.1967L153.191 44.3129C152.285 45.2198 152.285 46.6901 153.191 47.5969L155.307 49.7132C156.213 50.62 157.683 50.62 158.589 49.7132L160.705 47.5969C161.611 46.6901 161.611 45.2198 160.705 44.3129Z" fill="#B89BBF"/>
<path id="Vector_13" d="M147.003 51.3922C147.965 51.3922 148.744 52.172 148.744 53.1338C148.744 54.0957 147.965 54.8755 147.003 54.8755C146.042 54.8755 145.262 54.0957 145.262 53.1338C145.262 52.172 146.042 51.3922 147.003 51.3922Z" fill="#E1E4E5"/>
<path id="Vector_14" d="M46.1244 94.2529C46.1244 94.2529 49.166 80.1481 45.0249 69.6923C44.4749 68.303 42.4795 68.3848 42.0226 69.811C42.0151 69.8346 42.0071 69.859 41.9998 69.8839C41.2604 72.3316 45.5044 85.181 46.1244 94.2529ZM44.6209 98.4207C44.6209 98.4207 43.5438 79.121 34.3406 67.5976C33.7798 66.8951 32.7504 66.7283 32.0271 67.2666C31.5566 67.6176 31.17 68.2846 31.1378 69.522C31.0533 72.8234 40.7424 87.3484 44.6209 98.4207Z" fill="#B89BBF"/>
<path id="Vector_15" d="M39.3022 63.4671L36.4009 60.6806L39.3022 57.894L42.2038 60.6806L39.3022 63.4671ZM148.628 81.5798L145.726 78.6773L148.628 75.7745L151.529 78.6773L148.628 81.5798Z" stroke="#E1E4E5" stroke-width="1.18118" stroke-linecap="round" stroke-linejoin="round"/>
<path id="Vector_16" d="M71.082 29.1789C70.1157 30.586 70.7949 32.7327 70.7949 32.7327C70.7949 32.7327 73.0402 32.597 74.0055 31.1891C74.9717 29.7823 74.2935 27.6362 74.2935 27.6362C74.2935 27.6362 72.0482 27.7721 71.082 29.1789Z" fill="#E1E4E5"/>
<path id="Vector_17" d="M170.922 75.6614C166.338 80.3285 157.768 79.3445 157.768 79.3445C157.768 79.3445 156.634 70.7937 161.221 66.1297C165.804 61.4628 174.371 62.4439 174.371 62.4439C174.371 62.4439 175.505 70.9945 170.922 75.6614Z" fill="url(#paint2_linear_766_7201)"/>
<path id="Vector_18" d="M145.388 30.8169C143.998 32.2324 141.399 31.9338 141.399 31.9338C141.399 31.9338 141.055 29.3405 142.446 27.9257C143.836 26.5101 146.435 26.8078 146.435 26.8078C146.435 26.8078 146.779 29.4014 145.388 30.8169Z" fill="url(#paint3_linear_766_7201)"/>
<path id="Vector_19" d="M49.9614 48.5364C52.0014 52.1417 51.0334 57.605 51.0334 57.605C51.0334 57.605 45.1956 55.9983 43.1554 52.3927C41.1154 48.7874 40.985 45.0028 42.8629 43.937C44.7438 42.8704 47.9214 44.931 49.9614 48.5364Z" fill="url(#paint4_linear_766_7201)"/>
<path id="Vector_20" d="M154.691 60.6807H154.635C154.305 65.3529 150.833 65.4247 150.833 65.4247C150.833 65.4247 154.662 65.4996 154.662 70.8982C154.662 65.4996 158.491 65.4247 158.491 65.4247C158.491 65.4247 155.02 65.3529 154.691 60.6807Z" fill="#E1E4E5"/>
</g>
<defs>
<linearGradient id="paint0_linear_766_7201" x1="44.2352" y1="120.287" x2="204.319" y2="-37.3798" gradientUnits="userSpaceOnUse">
<stop stop-color="white"/>
<stop offset="1" stop-color="#EEEEEE"/>
</linearGradient>
<linearGradient id="paint1_linear_766_7201" x1="153.37" y1="114.091" x2="152.904" y2="73.4995" gradientUnits="userSpaceOnUse">
<stop stop-color="white"/>
<stop offset="1" stop-color="#EEEEEE"/>
</linearGradient>
<linearGradient id="paint2_linear_766_7201" x1="152.635" y1="91.6027" x2="185.791" y2="39.651" gradientUnits="userSpaceOnUse">
<stop stop-color="white"/>
<stop offset="1" stop-color="#EEEEEE"/>
</linearGradient>
<linearGradient id="paint3_linear_766_7201" x1="139.842" y1="35.6519" x2="149.898" y2="19.8946" gradientUnits="userSpaceOnUse">
<stop stop-color="white"/>
<stop offset="1" stop-color="#EEEEEE"/>
</linearGradient>
<linearGradient id="paint4_linear_766_7201" x1="54.9632" y1="48.248" x2="33.8177" y2="54.0536" gradientUnits="userSpaceOnUse">
<stop stop-color="white"/>
<stop offset="1" stop-color="#EEEEEE"/>
</linearGradient>
</defs>
</svg>
