<svg width="148" height="59" viewBox="0 0 148 59" fill="none" xmlns="http://www.w3.org/2000/svg">
<g id="Group">
<g id="Group_2">
<g id="Group_3">
<path id="Vector" d="M75.6924 33.6826C68.3882 35.9685 69.87 42.9492 71.2519 46.2374C72.9211 50.2138 74.0981 53.1503 74.0981 53.1503C74.0981 53.1503 75.9572 50.3569 78.2537 46.7071C80.1503 43.6927 82.5242 37.1391 75.6924 33.6826Z" fill="#FBECFF" stroke="#FBECFF" stroke-width="1.87414" stroke-miterlimit="10" stroke-linecap="round" stroke-linejoin="round"/>
<g id="Group_4">
<path id="Vector_2" d="M74.2207 52.4042C73.7135 49.2693 73.666 46.1093 73.8259 42.9593C73.9309 41.3868 74.0733 39.8093 74.3732 38.2494C74.6655 36.6945 75.0104 35.127 75.6951 33.6826C75.3627 36.8251 75.2603 39.9123 75.0729 43.0321C74.8629 46.147 74.6855 49.2668 74.2207 52.4042Z" fill="#FBECFF"/>
</g>
</g>
<g id="Group_5">
<path id="Vector_3" d="M60.9014 31.7713C63.3852 31.0504 66.0066 30.9198 68.5829 31.0881C71.1692 31.2413 73.733 31.7688 76.2044 32.5827C78.6607 33.4267 81.0572 34.5018 83.2087 35.9688C85.4052 37.3529 87.3318 39.1389 88.9711 41.1184C86.6646 39.9428 84.5281 38.6868 82.2616 37.682C80.0326 36.627 77.7511 35.7227 75.4247 34.9666C70.7768 33.3891 65.9741 32.4219 60.9014 31.7713Z" fill="#FBECFF"/>
</g>
<g id="Group_6">
<path id="Vector_4" d="M85.7775 39.7488C94.8658 36.0512 99.0389 44.185 100.326 48.5734C101.883 53.8811 103.092 57.752 103.092 57.752C103.092 57.752 98.9889 56.5011 93.7663 54.7553C89.4458 53.3159 81.7918 48.7567 85.7775 39.7488Z" fill="#FBECFF" stroke="#FBECFF" stroke-width="1.87414" stroke-miterlimit="10" stroke-linecap="round" stroke-linejoin="round"/>
<g id="Group_7">
<path id="Vector_5" d="M102.367 57.1136C99.4756 54.2952 96.7993 51.3236 94.078 48.3946L90.0174 43.9962C88.648 42.5443 87.2712 41.1049 85.7769 39.751C87.5785 40.6829 89.1604 41.9791 90.6847 43.3004C92.2165 44.6216 93.6258 46.0685 94.9951 47.5456C97.7014 50.5298 100.228 53.6747 102.367 57.1136Z" fill="#FBECFF"/>
</g>
</g>
</g>
<g id="Group_8">
<path id="Vector_6" d="M135.015 34.6297C142.444 36.461 144.758 29.7113 145.263 26.177C145.873 21.9042 146.372 18.7793 146.372 18.7793C146.372 18.7793 143.346 20.2086 139.508 22.1453C136.335 23.7429 130.935 28.1263 135.015 34.6297Z" fill="#FBECFF" stroke="#FBECFF" stroke-width="1.87414" stroke-miterlimit="10" stroke-linecap="round" stroke-linejoin="round"/>
<g id="Group_9">
<path id="Vector_7" d="M145.885 19.3555C144.711 22.3045 143.129 25.035 141.377 27.6525C140.48 28.9461 139.548 30.2222 138.491 31.4028C137.444 32.5835 136.345 33.749 135.015 34.6307C136.912 32.1112 138.584 29.5214 140.345 26.9416C142.122 24.3819 143.874 21.8021 145.885 19.3555Z" fill="#FBECFF"/>
</g>
</g>
<g id="Group_10">
<g id="Group_11">
<path id="Vector_8" d="M0.746582 46.4026C6.56892 42.8708 12.2938 39.5022 17.7113 35.6313C23.1689 31.8156 28.239 27.5554 33.3467 23.0464C29.7383 28.8616 24.7081 33.7223 19.1456 37.6861C13.5382 41.5998 7.33857 44.6895 0.746582 46.4026Z" fill="#FBECFF"/>
</g>
<g id="Group_12">
<g id="Group_13">
<path id="Vector_9" d="M30.3072 26.3879C41.8819 28.5155 44.8205 17.9376 45.2753 12.4641C45.8251 5.84507 46.3098 0.999512 46.3098 0.999512C46.3098 0.999512 41.7919 3.47127 36.0721 6.79711C31.3417 9.55021 23.4503 16.7746 30.3072 26.3879Z" fill="#FBECFF" stroke="#FBECFF" stroke-width="1.87414" stroke-miterlimit="10" stroke-linecap="round" stroke-linejoin="round"/>
<g id="Group_14">
<path id="Vector_10" d="M45.6106 1.93213C43.8414 6.44863 41.6125 10.7491 39.1536 14.9139C37.9042 16.9838 36.5998 19.0285 35.1379 20.9652C33.6836 22.8994 32.1618 24.8186 30.3076 26.3885C31.7769 24.4669 33.0689 22.4498 34.3458 20.4176L38.0816 14.2658C40.5704 10.1562 42.9793 5.99899 45.6106 1.93213Z" fill="#FBECFF"/>
</g>
</g>
<g id="Group_15">
<path id="Vector_11" d="M15.5842 40.7065C17.7807 49.7571 26.2919 48.4835 30.3525 47.0542C35.2628 45.3259 38.8861 44.1202 38.8861 44.1202C38.8861 44.1202 35.6651 41.6485 31.4495 38.5814C27.9636 36.0443 20.2596 32.6607 15.5842 40.7065Z" fill="#FBECFF" stroke="#FBECFF" stroke-width="1.87414" stroke-miterlimit="10" stroke-linecap="round" stroke-linejoin="round"/>
<g id="Group_16">
<path id="Vector_12" d="M37.994 43.9138C34.1907 44.1876 30.39 43.9841 26.6167 43.547C24.7326 43.3059 22.8485 43.0145 20.9968 42.5574C19.1476 42.1052 17.286 41.5953 15.5842 40.7061C17.4484 41.0979 19.3075 41.3567 21.1717 41.6053L26.7716 42.2986C30.5049 42.7835 34.2482 43.2129 37.994 43.9138Z" fill="#FBECFF"/>
</g>
</g>
<g id="Group_17">
<path id="Vector_13" d="M14.537 39.0406C22.6932 34.6145 19.3123 26.6592 16.9084 23.0721C14.0022 18.734 11.9232 15.5161 11.9232 15.5161C11.9232 15.5161 10.3589 19.274 8.47473 24.1497C6.91794 28.1839 5.61103 36.5336 14.537 39.0406Z" fill="#FBECFF" stroke="#FBECFF" stroke-width="1.87414" stroke-miterlimit="10" stroke-linecap="round" stroke-linejoin="round"/>
<g id="Group_18">
<path id="Vector_14" d="M11.9512 16.4365C13.1781 20.0663 13.9428 23.8141 14.4776 27.5921C14.7224 29.4861 14.9198 31.3902 14.9473 33.3093C14.9798 35.2209 14.9598 37.1601 14.5375 39.0416C14.4425 37.13 14.2227 35.2561 13.9903 33.3822L13.2406 27.7629C12.7584 24.0075 12.2235 20.2572 11.9512 16.4365Z" fill="#FBECFF"/>
</g>
</g>
</g>
</g>
</g>
</svg>
