<svg width="140" height="79" viewBox="0 0 140 79" fill="none" xmlns="http://www.w3.org/2000/svg">
<g id="Group">
<g id="Group_2">
<g id="Group_3">
<path id="Vector" d="M79.8657 30.8857C77.1394 31.0013 65.3273 34.7617 69.1905 39.125C71.0647 41.24 73.656 39.6927 75.2828 38.1579C76.0899 37.3918 79.5358 30.8983 79.8657 30.8857Z" fill="#FBECFF" stroke="#FBECFF" stroke-width="1.87414" stroke-miterlimit="10" stroke-linecap="round" stroke-linejoin="round"/>
<path id="Vector_2" d="M65.773 27.5264C64.3061 28.8326 63.0142 30.38 62.2396 32.1886C61.0276 35.012 62.4219 44.2209 67.0923 40.566C70.5907 37.8229 67.8495 30.3046 65.773 27.5264Z" fill="#FBECFF" stroke="#FBECFF" stroke-width="1.87414" stroke-miterlimit="10" stroke-linecap="round" stroke-linejoin="round"/>
<path id="Vector_3" d="M54.1183 33.1217C53.8584 33.0388 54.1882 36.1914 54.2707 36.4702C54.6005 37.5729 55.2053 38.5953 55.9474 39.4644C56.962 40.6526 60.6178 43.7473 62.2496 42.5541C66.1278 39.7232 55.92 33.6995 54.1183 33.1217Z" fill="#FBECFF" stroke="#FBECFF" stroke-width="1.87414" stroke-miterlimit="10" stroke-linecap="round" stroke-linejoin="round"/>
</g>
<g id="Group_4">
<path id="Vector_4" d="M78.6143 74.7025C77.6223 74.8131 76.5678 74.8081 75.7132 75.3281C75.056 75.73 74.6087 76.3906 74.0814 76.9532C73.5567 77.5184 72.8495 78.0208 72.0849 77.9379C71.3127 77.8525 70.728 77.1969 70.3407 76.5212C69.2412 74.6021 69.1412 72.1227 70.1482 70.1534C71.1577 68.184 73.2668 66.815 75.4683 66.7723C77.5773 66.7321 80.0187 68.1187 81.0658 69.9952C82.3027 72.2057 81.0282 74.4313 78.6143 74.7025Z" fill="#FBECFF" stroke="#FBECFF" stroke-width="1.87414" stroke-miterlimit="10" stroke-linecap="round" stroke-linejoin="round"/>
<path id="Vector_5" d="M70.7457 72.8968C69.6262 73.8991 68.1068 74.2859 66.6475 74.6401C64.1436 75.248 61.6373 75.8584 59.1334 76.4663C58.4937 76.622 57.804 76.7728 57.1943 76.5241C56.5846 76.2729 56.1973 75.6776 55.875 75.0998C54.798 73.1757 54.0058 70.8998 54.6105 68.7772C55.1203 66.9912 56.5321 65.6172 57.9989 64.4868C60.8551 62.2863 64.656 60.6234 68.0019 61.9623C72.4899 63.7633 74.8388 69.2243 70.7457 72.8968Z" fill="#FBECFF" stroke="#FBECFF" stroke-width="1.87414" stroke-miterlimit="10" stroke-linecap="round" stroke-linejoin="round"/>
<path id="Vector_6" d="M91.1837 62.6399C91.1862 64.0415 90.7315 65.5085 89.6719 66.4204C88.4275 67.4905 86.6333 67.601 85.1915 68.3848C84.117 68.9701 83.2724 69.912 82.2104 70.5149C79.7415 71.9115 76.353 71.0826 74.5588 68.8796C72.7622 66.6766 72.5422 63.4035 73.7367 60.8212C74.9311 58.2389 77.3875 56.3625 80.1038 55.5562C81.3482 55.1844 82.6702 55.0212 83.9546 55.2096C88.0352 55.8024 91.1762 58.4072 91.1837 62.6399Z" fill="#FBECFF" stroke="#FBECFF" stroke-width="1.87414" stroke-miterlimit="10" stroke-linecap="round" stroke-linejoin="round"/>
<path id="Vector_7" d="M88.5401 53.6068C89.2472 56.0485 89.3496 58.7312 88.4051 61.0899C87.4605 63.4486 85.3665 65.4105 82.8652 65.7923C80.3763 66.1716 77.8799 65.0187 75.3686 65.1794C69.1889 65.5763 64.8758 73.5869 58.7761 72.5243C56.1298 72.0646 54.0583 69.8893 52.8563 67.4728C50.9922 63.7275 50.8272 59.1683 52.4215 55.2999C54.2032 50.9743 57.9765 47.7213 62.1496 45.6414C66.9524 43.2475 72.9646 40.7883 78.1298 42.9008C83 44.8978 87.0207 48.3669 88.5401 53.6068Z" fill="#FBECFF" stroke="#FBECFF" stroke-width="1.87414" stroke-miterlimit="10" stroke-linecap="round" stroke-linejoin="round"/>
<path id="Vector_8" d="M73.3698 60.4751C72.2404 60.8343 71.0634 61.0729 70.0039 61.6055C68.7795 62.2209 67.7749 63.1905 66.6629 63.9919C65.5509 64.7932 64.2241 65.4513 62.8647 65.2805C61.6253 65.1273 60.5632 64.3058 59.7236 63.3764C57.4196 60.8242 56.3552 57.1869 56.9199 53.7883C57.4847 50.3871 59.6662 47.2974 62.6723 45.637C63.3495 45.2627 64.0916 44.9512 64.8663 44.9512C65.7134 44.9512 66.5155 45.3255 67.2626 45.7249C71.6206 48.0535 83.3878 57.2949 73.3698 60.4751Z" fill="#FBECFF" stroke="#FBECFF" stroke-width="1.87414" stroke-miterlimit="10" stroke-linecap="round" stroke-linejoin="round"/>
<g id="Group_5">
<path id="Vector_9" d="M60.5929 56.7909C57.3669 60.3253 53.9159 63.9801 52.7115 68.6222C52.5091 69.406 52.0018 70.4409 51.2397 70.1747C51.0872 70.1219 50.9598 70.0189 50.8373 69.9134C47.7362 67.2733 46.3719 62.9 46.8817 58.8482C47.3915 54.7939 49.6104 51.0837 52.5615 48.2728C54.9505 45.9995 63.4466 40.4582 66.7401 43.7313C70.0136 46.9842 62.5945 54.6005 60.5929 56.7909Z" fill="#FBECFF" stroke="#FBECFF" stroke-width="1.87414" stroke-miterlimit="10" stroke-linecap="round" stroke-linejoin="round"/>
<path id="Vector_10" d="M70.4685 49.2645C72.0253 51.1208 74.1943 52.5778 76.6007 52.7938C78.1849 52.9345 79.8117 52.5451 81.3535 52.9394C83.1677 53.4042 84.5296 54.8637 86.0389 55.979C87.5482 57.0943 89.6522 57.8905 91.244 56.9008C92.8708 55.8885 93.0707 53.57 92.6733 51.6885C91.4414 45.8256 85.8365 41.2011 79.8767 41.1308C78.3374 41.1132 76.8056 41.3644 75.2938 41.6482C73.802 41.927 69.0991 42.133 68.1521 43.4643C66.9826 45.1097 69.364 47.9482 70.4685 49.2645Z" fill="#FBECFF" stroke="#FBECFF" stroke-width="1.87414" stroke-miterlimit="10" stroke-linecap="round" stroke-linejoin="round"/>
</g>
</g>
</g>
<g id="Group_6">
<g id="Group_7">
<path id="Vector_11" d="M21.9092 2.99973C22.8862 3.20823 23.8858 3.54737 24.8578 3.32381C25.6075 3.15048 26.2397 2.66565 26.9144 2.29639C27.5891 1.92713 28.4187 1.67346 29.1184 1.99247C29.8256 2.31652 30.1729 3.12534 30.3303 3.88898C30.7726 6.05931 30.0929 8.44569 28.5186 9.99305C26.9444 11.5429 24.513 12.1759 22.409 11.5203C20.3949 10.8923 18.5107 8.80238 18.1059 6.68982C17.6261 4.20047 19.5328 2.49232 21.9092 2.99973Z" fill="#FBECFF" stroke="#FBECFF" stroke-width="1.87414" stroke-miterlimit="10" stroke-linecap="round" stroke-linejoin="round"/>
<path id="Vector_12" d="M28.8125 7.20486C30.1894 6.60701 31.7537 6.72004 33.248 6.84563C35.8168 7.06166 38.3832 7.27517 40.952 7.48869C41.6067 7.54395 42.3089 7.6168 42.8087 8.04634C43.3084 8.47589 43.4908 9.16419 43.6158 9.81479C44.0356 11.9826 44.0756 14.3915 42.8361 16.2152C41.7941 17.75 40.0224 18.6066 38.2782 19.2145C34.8772 20.4001 30.7491 20.7744 27.9929 18.4458C24.2946 15.321 23.7748 9.39277 28.8125 7.20486Z" fill="#FBECFF" stroke="#FBECFF" stroke-width="1.87414" stroke-miterlimit="10" stroke-linecap="round" stroke-linejoin="round"/>
<path id="Vector_13" d="M6.20081 10.4729C6.63811 9.14157 7.52772 7.89311 8.81963 7.36309C10.3364 6.74013 12.0731 7.20485 13.6874 6.91598C14.8894 6.69995 15.9864 6.07447 17.1833 5.83835C19.9646 5.29325 22.9207 7.15212 23.9353 9.80977C24.9498 12.4674 24.1352 15.6475 22.1936 17.7199C20.252 19.7923 17.3308 20.7946 14.4996 20.7041C13.2002 20.6614 11.8957 20.4002 10.7362 19.8149C7.04793 17.9561 4.88141 14.492 6.20081 10.4729Z" fill="#FBECFF" stroke="#FBECFF" stroke-width="1.87414" stroke-miterlimit="10" stroke-linecap="round" stroke-linejoin="round"/>
<path id="Vector_14" d="M5.88066 19.8796C5.97312 17.34 6.71781 14.7577 8.35206 12.8185C9.98632 10.8792 12.5876 9.67849 15.0815 10.108C17.5628 10.5351 19.5719 12.4191 22.0058 13.0621C27.9956 14.6396 34.5975 8.40243 40.055 11.3389C42.424 12.6125 43.7084 15.3329 44.0932 18.0057C44.6904 22.1504 43.4185 26.5287 40.6948 29.6988C37.6512 33.2407 33.0508 35.1347 28.4379 35.7878C23.1278 36.5413 16.6533 36.9709 12.4127 33.3336C8.41204 29.8998 5.68325 25.3356 5.88066 19.8796Z" fill="#FBECFF" stroke="#FBECFF" stroke-width="1.87414" stroke-miterlimit="10" stroke-linecap="round" stroke-linejoin="round"/>
<path id="Vector_15" d="M22.4304 18.1614C23.6148 18.179 24.8068 18.3222 25.9812 18.1539C27.3356 17.9579 28.5925 17.355 29.8994 16.9456C31.2063 16.5361 32.6707 16.3327 33.9076 16.923C35.0371 17.4605 35.7868 18.5759 36.2941 19.7238C37.6834 22.8763 37.5534 26.6644 35.9517 29.7114C34.3499 32.7609 31.3113 35.0041 27.9403 35.6295C27.1782 35.7702 26.3785 35.8305 25.6439 35.5843C24.8392 35.3155 24.197 34.7077 23.6098 34.0922C20.2039 30.5077 11.9277 18.0107 22.4304 18.1614Z" fill="#FBECFF" stroke="#FBECFF" stroke-width="1.87414" stroke-miterlimit="10" stroke-linecap="round" stroke-linejoin="round"/>
<g id="Group_8">
<path id="Vector_16" d="M33.4057 25.7036C37.5763 23.37 41.9942 20.9912 44.5905 16.967C45.0278 16.2888 45.835 15.4649 46.4747 15.9572C46.6021 16.0552 46.6921 16.1933 46.7745 16.3315C48.8911 19.8206 48.8187 24.3999 47.0645 28.0875C45.3103 31.7725 42.0418 34.5934 38.3609 36.3267C35.3823 37.7284 25.5817 40.2981 23.4802 36.1508C21.3936 32.0312 30.8194 27.1505 33.4057 25.7036Z" fill="#FBECFF" stroke="#FBECFF" stroke-width="1.87414" stroke-miterlimit="10" stroke-linecap="round" stroke-linejoin="round"/>
<path id="Vector_17" d="M21.6739 29.7238C20.7768 27.4681 19.175 25.4007 16.9585 24.4336C15.4992 23.7981 13.8324 23.6549 12.493 22.7908C10.9162 21.7734 10.0817 19.9598 8.99967 18.4225C7.91516 16.8851 6.16846 15.4634 4.34679 15.9005C2.48514 16.3451 1.57052 18.4853 1.35812 20.3943C0.690924 26.3502 4.56414 32.5121 10.1991 34.4639C11.6559 34.9688 13.1852 35.2124 14.712 35.4234C16.2163 35.6294 20.7443 36.9256 22.0587 35.961C23.6854 34.7703 22.3111 31.3239 21.6739 29.7238Z" fill="#FBECFF" stroke="#FBECFF" stroke-width="1.87414" stroke-miterlimit="10" stroke-linecap="round" stroke-linejoin="round"/>
</g>
</g>
<g id="Group_9">
<path id="Vector_18" d="M8.09229 45.6024C10.7611 46.1727 23.1329 45.4769 20.4691 40.2871C19.1772 37.7702 16.2835 38.6217 14.3269 39.7044C13.3574 40.2419 8.41464 45.6728 8.09229 45.6024Z" fill="#FBECFF" stroke="#FBECFF" stroke-width="1.87414" stroke-miterlimit="10" stroke-linecap="round" stroke-linejoin="round"/>
<path id="Vector_19" d="M23.2799 53.4162C24.7543 52.1175 26.0512 50.5751 26.8358 48.7716C28.0603 45.9557 26.7083 36.7368 22.023 40.3716C18.5096 43.0946 21.2159 50.6254 23.2799 53.4162Z" fill="#FBECFF" stroke="#FBECFF" stroke-width="1.87414" stroke-miterlimit="10" stroke-linecap="round" stroke-linejoin="round"/>
<path id="Vector_20" d="M37.3513 47.9833C37.6212 48.026 36.8216 44.959 36.6966 44.6977C36.2044 43.6603 35.4547 42.7383 34.5876 41.9923C33.4057 40.9724 29.325 38.468 27.8907 39.8948C24.4873 43.2834 35.4822 47.6869 37.3513 47.9833Z" fill="#FBECFF" stroke="#FBECFF" stroke-width="1.87414" stroke-miterlimit="10" stroke-linecap="round" stroke-linejoin="round"/>
</g>
</g>
<g id="Group_10">
<g id="Group_11">
<path id="Vector_21" d="M118.42 2.78851C117.443 2.997 116.444 3.33615 115.472 3.11258C114.722 2.93926 114.09 2.45442 113.415 2.08516C112.74 1.71591 111.911 1.46221 111.211 1.78374C110.504 2.10778 110.156 2.91665 109.999 3.68028C109.554 5.85061 110.236 8.23697 111.811 9.78685C113.385 11.3367 115.816 11.9697 117.92 11.3141C119.934 10.6861 121.819 8.59618 122.223 6.48362C122.703 3.98925 120.797 2.27858 118.42 2.78851Z" fill="#FBECFF" stroke="#FBECFF" stroke-width="1.87414" stroke-miterlimit="10" stroke-linecap="round" stroke-linejoin="round"/>
<path id="Vector_22" d="M111.517 6.9905C110.14 6.39266 108.576 6.50568 107.082 6.63128C104.513 6.84479 101.947 7.06085 99.3777 7.27437C98.723 7.32963 98.0208 7.40248 97.521 7.83202C97.0212 8.26157 96.8388 8.95234 96.7139 9.60043C96.2941 11.7682 96.2541 14.1772 97.4936 16.0009C98.5356 17.5357 100.307 18.3923 102.051 19.0002C105.452 20.1858 109.581 20.5601 112.337 18.2315C116.033 15.1092 116.552 9.18093 111.517 6.9905Z" fill="#FBECFF" stroke="#FBECFF" stroke-width="1.87414" stroke-miterlimit="10" stroke-linecap="round" stroke-linejoin="round"/>
<path id="Vector_23" d="M134.128 10.259C133.69 8.92767 132.801 7.67925 131.509 7.14923C129.992 6.52626 128.256 6.99099 126.641 6.70211C125.439 6.48608 124.342 5.8606 123.145 5.62448C120.364 5.07939 117.408 6.93822 116.393 9.59587C115.379 12.2535 116.193 15.4337 118.135 17.506C120.077 19.5784 122.998 20.5806 125.829 20.4902C127.129 20.4475 128.433 20.1863 129.592 19.601C133.281 17.7446 135.447 14.2781 134.128 10.259Z" fill="#FBECFF" stroke="#FBECFF" stroke-width="1.87414" stroke-miterlimit="10" stroke-linecap="round" stroke-linejoin="round"/>
<path id="Vector_24" d="M134.447 19.6691C134.355 17.1295 133.61 14.5498 131.976 12.608C130.342 10.6688 127.741 9.46804 125.247 9.89759C122.765 10.3246 120.756 12.2086 118.322 12.8517C112.333 14.4292 105.731 8.19198 100.273 11.1285C97.9042 12.402 96.6223 15.1225 96.235 17.7952C95.6377 21.9399 96.9096 26.3182 99.6334 29.4883C102.677 33.0302 107.277 34.9242 111.89 35.5773C117.2 36.3309 123.675 36.7605 127.915 33.1232C131.916 29.6893 134.645 25.1251 134.447 19.6691Z" fill="#FBECFF" stroke="#FBECFF" stroke-width="1.87414" stroke-miterlimit="10" stroke-linecap="round" stroke-linejoin="round"/>
<path id="Vector_25" d="M117.898 17.9505C116.714 17.9681 115.522 18.1113 114.347 17.943C112.993 17.747 111.736 17.1441 110.429 16.7347C109.122 16.3252 107.658 16.1217 106.421 16.712C105.292 17.2496 104.542 18.365 104.035 19.5129C102.645 22.6654 102.775 26.4534 104.377 29.5004C105.979 32.5499 109.015 34.7932 112.388 35.4186C113.15 35.5593 113.95 35.6196 114.685 35.3734C115.489 35.1046 116.132 34.4968 116.719 33.8813C120.125 30.2943 128.404 17.7998 117.898 17.9505Z" fill="#FBECFF" stroke="#FBECFF" stroke-width="1.87414" stroke-miterlimit="10" stroke-linecap="round" stroke-linejoin="round"/>
<g id="Group_12">
<path id="Vector_26" d="M106.925 25.4914C102.754 23.1578 98.3364 20.779 95.7401 16.7549C95.3028 16.0742 94.4957 15.2527 93.8559 15.7451C93.7285 15.843 93.6386 15.9812 93.5561 16.1194C91.4396 19.6085 91.512 24.1877 93.2662 27.8753C95.0204 31.5603 98.2864 34.3838 101.97 36.1145C104.948 37.5162 114.749 40.086 116.848 35.9387C118.935 31.8191 109.509 26.9383 106.925 25.4914Z" fill="#FBECFF" stroke="#FBECFF" stroke-width="1.87414" stroke-miterlimit="10" stroke-linecap="round" stroke-linejoin="round"/>
<path id="Vector_27" d="M118.655 29.5075C119.552 27.2517 121.154 25.1844 123.37 24.2173C124.83 23.5818 126.496 23.4386 127.836 22.5745C129.413 21.5572 130.247 19.7435 131.329 18.2062C132.411 16.6689 134.16 15.2471 135.982 15.6842C137.844 16.1288 138.758 18.269 138.971 20.1806C139.638 26.1365 135.765 32.2982 130.13 34.25C128.673 34.7549 127.144 34.9986 125.617 35.2097C124.112 35.4156 119.584 36.7118 118.27 35.7472C116.646 34.554 118.018 31.1076 118.655 29.5075Z" fill="#FBECFF" stroke="#FBECFF" stroke-width="1.87414" stroke-miterlimit="10" stroke-linecap="round" stroke-linejoin="round"/>
</g>
</g>
<g id="Group_13">
<path id="Vector_28" d="M132.237 45.3915C129.568 45.9617 117.196 45.2659 119.86 40.0762C121.152 37.5592 124.046 38.4108 126.002 39.4935C126.974 40.0285 131.914 45.4593 132.237 45.3915Z" fill="#FBECFF" stroke="#FBECFF" stroke-width="1.87414" stroke-miterlimit="10" stroke-linecap="round" stroke-linejoin="round"/>
<path id="Vector_29" d="M117.049 53.2038C115.575 51.9051 114.278 50.3627 113.493 48.5592C112.269 45.7433 113.621 36.5244 118.306 40.1592C121.819 42.8847 119.113 50.4155 117.049 53.2038Z" fill="#FBECFF" stroke="#FBECFF" stroke-width="1.87414" stroke-miterlimit="10" stroke-linecap="round" stroke-linejoin="round"/>
<path id="Vector_30" d="M102.977 47.7724C102.708 47.8151 103.507 44.748 103.632 44.4867C104.124 43.4493 104.874 42.5299 105.741 41.7813C106.921 40.7615 111.004 38.2571 112.436 39.6839C115.841 43.0725 104.847 47.476 102.977 47.7724Z" fill="#FBECFF" stroke="#FBECFF" stroke-width="1.87414" stroke-miterlimit="10" stroke-linecap="round" stroke-linejoin="round"/>
</g>
</g>
</g>
</svg>
