<svg width="231" height="225" viewBox="0 0 231 225" fill="none" xmlns="http://www.w3.org/2000/svg">
<g id="Group">
<path id="Vector" d="M215.708 207.431C215.708 214.454 174.276 224.975 123.167 224.975C72.0579 224.975 12.959 214.862 12.959 207.839C12.959 200.816 72.0579 199.543 123.167 199.543C174.276 199.543 215.708 200.408 215.708 207.431Z" fill="#EFF4BE"/>
<path id="Vector_2" d="M29.4639 199.543H204.311C204.311 199.543 221.277 140.381 198.448 122.849C175.619 105.317 178.676 76.2552 202.274 62.7888C225.872 49.3224 225.225 17.5295 183.556 15.5802C141.887 13.6309 129.797 26.8497 121.29 15.5802C106.268 -4.32112 59.1032 -10.8491 50.4933 31.6234C43.8219 64.5332 10.9463 65.3393 7.24694 85.8821C2.3666 112.983 42.3261 115.443 39.8825 131.449C37.4389 147.455 12.5128 172.886 29.4639 199.543Z" fill="#F2F8FF"/>
<g id="Group_2">
<g id="Group_3">
<path id="Vector_3" d="M216.521 181.209C216.464 181.599 216.404 181.986 216.344 182.373C215.61 187.215 214.697 192.027 213.344 196.618C213.105 197.425 212.848 198.225 212.58 199.02L215.272 199.022C215.364 198.687 215.461 198.353 215.549 198.017C216.177 195.57 216.677 193.106 217.089 190.647C217.454 188.482 217.75 186.306 218.005 184.152C218.12 183.186 218.222 182.225 218.323 181.264C219.023 174.424 219.463 167.548 219.255 160.811C219.048 154.074 218.161 147.474 216.24 141.591C217.877 147.67 218.435 154.306 218.339 160.991C218.241 167.7 217.509 174.467 216.521 181.209Z" fill="#D5CDD7"/>
</g>
<g id="Group_4">
<path id="Vector_4" d="M201.88 183.578C201.804 185.921 201.67 188.268 201.472 190.617C201.336 192.306 201.163 193.992 200.961 195.679C200.883 196.349 200.795 197.02 200.705 197.687C200.645 198.129 200.578 198.57 200.513 199.012L202.982 199.013C203.028 198.584 203.075 198.155 203.117 197.726C203.174 197.168 203.226 196.609 203.267 196.049C203.396 194.573 203.496 193.099 203.572 191.629C203.685 189.482 203.75 187.344 203.763 185.212L203.761 185.207C203.791 182.312 203.73 179.43 203.591 176.566C202.922 162.638 200.552 149.195 197.387 136.192C200.026 149.414 201.849 163.008 201.967 176.859C201.986 179.098 201.96 181.337 201.88 183.578Z" fill="#D5CDD7"/>
</g>
<g id="Group_5">
<path id="Vector_5" d="M186.855 159.969C187.177 160.483 187.519 160.973 187.823 161.505L188.695 163.118C189.784 165.323 190.727 167.642 191.411 170.094C191.805 171.292 192.053 172.567 192.366 173.8L192.726 175.706L192.903 176.658L193.041 177.625C193.124 178.131 193.193 178.642 193.259 179.155C193.529 181.228 193.678 183.339 193.805 185.454C193.931 188.096 193.956 190.759 193.905 193.432C193.862 195.291 193.775 197.144 193.673 199.007L195.981 199.009C195.99 197.052 195.985 195.086 195.934 193.133C195.927 192.912 195.919 192.687 195.907 192.464C195.885 191.677 195.849 190.893 195.801 190.117C195.713 188.421 195.587 186.74 195.427 185.064C195.222 183.234 194.998 181.406 194.694 179.607C194.561 178.792 194.409 177.983 194.234 177.177L194.042 176.213L193.815 175.26L193.346 173.358C192.961 172.12 192.639 170.86 192.176 169.667C191.351 167.239 190.266 164.966 189.041 162.837L188.079 161.276C187.749 160.767 187.369 160.295 187.017 159.806L186.481 159.077C186.3 158.846 186.092 158.633 185.899 158.41L184.725 157.077L185.823 158.497C185.999 158.73 186.19 158.96 186.362 159.208L186.855 159.969Z" fill="#F3D0DD"/>
</g>
<g id="Group_6">
<path id="Vector_6" d="M210.225 199.018C210.227 199.007 210.23 198.992 210.232 198.982C211.067 195.186 211.778 191.406 212.377 187.628C212.51 186.818 212.636 186.015 212.757 185.204C213.186 182.337 213.562 179.474 213.879 176.61C214.115 174.528 214.316 172.445 214.494 170.361C214.498 170.332 214.502 170.303 214.502 170.267C214.525 170.035 214.543 169.795 214.555 169.562C214.63 168.713 214.702 167.878 214.758 167.035C214.864 165.552 214.957 164.069 215.035 162.578C215.061 162.171 215.082 161.757 215.101 161.357C215.503 153.458 215.572 145.603 215.361 137.836C215.055 145.6 214.488 153.397 213.594 161.17C213.587 161.25 213.579 161.344 213.566 161.431C213.243 164.216 212.885 166.999 212.476 169.772C212.126 172.19 211.732 174.592 211.297 177C210.873 179.444 210.392 181.886 209.878 184.312C209.841 184.521 209.801 184.709 209.759 184.911C208.883 188.974 207.631 194.537 206.43 199.015L210.225 199.018Z" fill="#F3D0DD"/>
</g>
</g>
<g id="Group_7">
<g id="Group_8">
<path id="Vector_7" d="M38.5343 184.321C38.49 184.627 38.4427 184.931 38.3954 185.235C37.8189 189.036 37.1024 192.815 36.0397 196.42C35.8526 197.053 35.6509 197.682 35.4404 198.305L37.5541 198.307C37.6264 198.044 37.7024 197.781 37.771 197.518C38.2644 195.597 38.6572 193.662 38.9809 191.731C39.2667 190.032 39.4993 188.323 39.6997 186.631C39.7903 185.873 39.87 185.119 39.9496 184.364C40.499 178.994 40.8443 173.594 40.6815 168.305C40.5187 163.016 39.8225 157.833 38.3143 153.214C39.5995 157.987 40.0371 163.197 39.962 168.446C39.8852 173.714 39.3101 179.027 38.5343 184.321Z" fill="#D5CDD7"/>
</g>
<g id="Group_9">
<path id="Vector_8" d="M27.0385 186.181C26.9791 188.02 26.8738 189.863 26.7181 191.708C26.6114 193.034 26.4759 194.357 26.3175 195.682C26.2559 196.208 26.1866 196.735 26.1159 197.259C26.0687 197.606 26.0165 197.952 25.9658 198.299L27.9042 198.3C27.9403 197.963 27.9773 197.627 28.0097 197.29C28.0547 196.852 28.0952 196.412 28.1281 195.973C28.2293 194.814 28.3077 193.656 28.3675 192.502C28.4557 190.817 28.507 189.138 28.5168 187.464L28.5155 187.46C28.5388 185.187 28.4915 182.924 28.3825 180.675C27.8569 169.74 25.996 159.185 23.5107 148.975C25.5832 159.357 27.0141 170.03 27.1067 180.906C27.1217 182.663 27.1015 184.421 27.0385 186.181Z" fill="#D5CDD7"/>
</g>
<g id="Group_10">
<path id="Vector_9" d="M15.2421 167.644C15.4946 168.048 15.7634 168.433 16.0015 168.85L16.6863 170.116C17.5412 171.847 18.2818 173.669 18.8189 175.594C19.1282 176.534 19.3231 177.535 19.5686 178.504L19.8513 180L19.9904 180.748L20.0984 181.506C20.1637 181.904 20.2182 182.305 20.2696 182.708C20.4817 184.335 20.5992 185.993 20.6983 187.654C20.7978 189.728 20.8172 191.819 20.7767 193.918C20.7431 195.377 20.6748 196.833 20.5947 198.295L22.4069 198.296C22.4139 196.76 22.4103 195.216 22.3699 193.683C22.365 193.51 22.3587 193.333 22.3492 193.158C22.3316 192.54 22.3033 191.924 22.2654 191.315C22.197 189.984 22.0974 188.664 21.9718 187.347C21.8111 185.911 21.6351 184.476 21.3969 183.063C21.2919 182.423 21.1731 181.788 21.0358 181.155L20.885 180.398L20.7063 179.65L20.3379 178.156C20.0363 177.184 19.7828 176.195 19.4199 175.258C18.7721 173.352 17.9199 171.567 16.9582 169.896L16.2028 168.67C15.9439 168.27 15.6454 167.9 15.369 167.516L14.9481 166.943C14.8063 166.762 14.6424 166.595 14.4911 166.42L13.5696 165.373L14.4312 166.488C14.5699 166.671 14.7194 166.852 14.8544 167.046L15.2421 167.644Z" fill="#F3D0DD"/>
</g>
<g id="Group_11">
<path id="Vector_10" d="M33.5906 198.304C33.5924 198.295 33.5948 198.283 33.5966 198.275C34.2522 195.295 34.8101 192.327 35.2809 189.361C35.3852 188.725 35.4841 188.094 35.5792 187.457C35.9158 185.206 36.2107 182.959 36.4602 180.71C36.6451 179.075 36.8029 177.44 36.9425 175.804C36.9459 175.781 36.9493 175.758 36.949 175.73C36.9672 175.547 36.9816 175.359 36.9907 175.176C37.0493 174.509 37.1062 173.854 37.1503 173.192C37.2331 172.028 37.3066 170.864 37.3675 169.693C37.3879 169.373 37.4046 169.048 37.4196 168.734C37.7348 162.532 37.7893 156.364 37.6232 150.266C37.3831 156.363 36.9382 162.484 36.2358 168.587C36.231 168.65 36.2245 168.724 36.2143 168.792C35.9605 170.979 35.6795 173.164 35.3586 175.341C35.0838 177.24 34.7744 179.126 34.4324 181.016C34.0998 182.935 33.7218 184.853 33.3184 186.757C33.2892 186.922 33.258 187.069 33.2251 187.228C32.5369 190.418 31.5544 194.786 30.6113 198.302L33.5906 198.304Z" fill="#F3D0DD"/>
</g>
</g>
<g id="Group_12">
<g id="Group_13">
<path id="Vector_11" d="M53.9954 177.141C54.0643 177.617 54.1377 178.089 54.2112 178.561C55.1072 184.469 56.2207 190.341 57.8721 195.943C58.163 196.928 58.4764 197.904 58.8034 198.873L55.5187 198.875C55.4063 198.467 55.2882 198.059 55.1816 197.649C54.4149 194.664 53.8045 191.658 53.3014 188.656C52.8572 186.015 52.4957 183.36 52.1843 180.731C52.0435 179.553 51.9197 178.381 51.7959 177.208C50.9422 168.862 50.4055 160.471 50.6586 152.251C50.9117 144.032 51.9937 135.978 54.3373 128.799C52.3401 136.217 51.6601 144.314 51.7768 152.471C51.896 160.657 52.7898 168.914 53.9954 177.141Z" fill="#D5CDD7"/>
</g>
<g id="Group_14">
<path id="Vector_12" d="M71.8605 180.032C71.9528 182.89 72.1164 185.754 72.3584 188.62C72.5242 190.681 72.7347 192.738 72.9809 194.797C73.0767 195.615 73.1844 196.433 73.2942 197.247C73.3675 197.786 73.4486 198.324 73.5274 198.863L70.5149 198.865C70.4587 198.342 70.4014 197.819 70.351 197.295C70.2811 196.614 70.2181 195.931 70.167 195.249C70.0097 193.447 69.888 191.649 69.795 189.855C69.6579 187.236 69.5782 184.626 69.5629 182.025L69.565 182.019C69.5287 178.487 69.6022 174.97 69.7716 171.475C70.5885 154.481 73.4803 138.077 77.3425 122.212C74.1219 138.345 71.8982 154.933 71.7543 171.833C71.7312 174.564 71.7626 177.297 71.8605 180.032Z" fill="#D5CDD7"/>
</g>
<g id="Group_15">
<path id="Vector_13" d="M90.1928 151.224C89.8003 151.851 89.3826 152.449 89.0125 153.098L87.9483 155.066C86.6198 157.756 85.4688 160.586 84.6341 163.578C84.1535 165.04 83.8505 166.595 83.4691 168.1L83.0298 170.426L82.8136 171.588L82.6456 172.767C82.5442 173.385 82.4595 174.008 82.3797 174.634C82.0501 177.163 81.8675 179.739 81.7135 182.32C81.5588 185.544 81.5286 188.793 81.5915 192.055C81.6437 194.323 81.7499 196.584 81.8744 198.857L79.0581 198.859C79.0472 196.472 79.053 194.073 79.1156 191.69C79.1233 191.421 79.1332 191.146 79.1478 190.874C79.1751 189.913 79.2192 188.957 79.278 188.01C79.3844 185.941 79.5391 183.889 79.7343 181.844C79.9841 179.612 80.2577 177.381 80.6279 175.186C80.7909 174.191 80.9756 173.204 81.189 172.221L81.4234 171.044L81.7012 169.882L82.2736 167.56C82.7423 166.05 83.1362 164.513 83.7001 163.057C84.7069 160.095 86.0313 157.321 87.5257 154.723L88.6997 152.818C89.102 152.197 89.5658 151.622 89.9954 151.025L90.6496 150.135C90.87 149.853 91.1246 149.594 91.3597 149.321L92.7918 147.695L91.4528 149.427C91.2373 149.712 91.005 149.993 90.7951 150.295L90.1928 151.224Z" fill="#F3D0DD"/>
</g>
<g id="Group_16">
<path id="Vector_14" d="M61.6778 198.871C61.6749 198.858 61.6712 198.839 61.6685 198.827C60.6496 194.195 59.7826 189.583 59.0509 184.974C58.8888 183.985 58.7352 183.005 58.5873 182.015C58.0643 178.517 57.606 175.024 57.2182 171.529C56.9308 168.989 56.6856 166.448 56.4687 163.905C56.4634 163.869 56.4581 163.834 56.4585 163.79C56.4304 163.506 56.4079 163.214 56.3939 162.93C56.3028 161.893 56.2143 160.874 56.1457 159.846C56.0172 158.037 55.9029 156.228 55.8082 154.408C55.7766 153.912 55.7506 153.406 55.7273 152.918C55.2374 143.28 55.1528 133.695 55.4109 124.218C55.7841 133.692 56.4753 143.205 57.567 152.69C57.5745 152.787 57.5846 152.903 57.6004 153.009C57.9948 156.406 58.4315 159.802 58.9303 163.186C59.3573 166.137 59.8381 169.068 60.3696 172.005C60.8865 174.988 61.4738 177.967 62.1009 180.927C62.1462 181.183 62.1946 181.412 62.2458 181.659C63.3153 186.615 64.8422 193.404 66.3077 198.868L61.6778 198.871Z" fill="#F3D0DD"/>
</g>
</g>
<g id="Group_17">
<g id="Group_18">
<path id="Vector_15" d="M158.579 177.136C158.648 177.612 158.722 178.084 158.795 178.555C159.691 184.463 160.805 190.336 162.456 195.938C162.747 196.923 163.06 197.899 163.387 198.868L160.103 198.87C159.99 198.462 159.872 198.054 159.766 197.644C158.999 194.659 158.388 191.653 157.885 188.651C157.441 186.01 157.08 183.355 156.768 180.726C156.628 179.548 156.504 178.375 156.38 177.203C155.526 168.857 154.99 160.466 155.243 152.246C155.496 144.027 156.578 135.973 158.921 128.794C156.924 136.212 156.244 144.309 156.361 152.466C156.48 160.652 157.374 168.909 158.579 177.136Z" fill="#D5CDD7"/>
</g>
<g id="Group_19">
<path id="Vector_16" d="M176.444 180.026C176.537 182.885 176.7 185.748 176.942 188.615C177.108 190.676 177.319 192.732 177.565 194.791C177.661 195.609 177.768 196.428 177.878 197.241C177.951 197.781 178.033 198.319 178.111 198.858L175.099 198.86C175.043 198.337 174.985 197.813 174.935 197.289C174.865 196.609 174.802 195.926 174.751 195.243C174.594 193.442 174.472 191.643 174.379 189.849C174.242 187.23 174.162 184.621 174.147 182.019L174.149 182.014C174.113 178.481 174.186 174.965 174.356 171.469C175.172 154.475 178.064 138.072 181.926 122.207C178.706 138.34 176.482 154.927 176.338 171.828C176.315 174.559 176.347 177.292 176.444 180.026Z" fill="#D5CDD7"/>
</g>
<g id="Group_20">
<path id="Vector_17" d="M194.777 151.219C194.384 151.846 193.967 152.444 193.597 153.093L192.532 155.061C191.204 157.751 190.053 160.582 189.218 163.573C188.738 165.035 188.435 166.59 188.053 168.096L187.614 170.421L187.398 171.583L187.23 172.762C187.128 173.38 187.044 174.003 186.964 174.629C186.634 177.158 186.452 179.734 186.298 182.315C186.143 185.539 186.113 188.788 186.176 192.05C186.228 194.318 186.334 196.58 186.459 198.852L183.642 198.854C183.631 196.467 183.637 194.068 183.7 191.686C183.708 191.416 183.717 191.141 183.732 190.869C183.759 189.908 183.803 188.952 183.862 188.005C183.969 185.936 184.123 183.885 184.319 181.839C184.568 179.607 184.842 177.377 185.212 175.181C185.375 174.186 185.56 173.199 185.773 172.216L186.008 171.039L186.286 169.877L186.858 167.555C187.327 166.046 187.721 164.508 188.284 163.052C189.291 160.09 190.616 157.316 192.11 154.718L193.284 152.813C193.686 152.192 194.15 151.617 194.58 151.02L195.234 150.13C195.454 149.849 195.709 149.589 195.944 149.316L197.376 147.69L196.037 149.423C195.822 149.707 195.589 149.988 195.379 150.29L194.777 151.219Z" fill="#F3D0DD"/>
</g>
<g id="Group_21">
<path id="Vector_18" d="M166.262 198.866C166.259 198.853 166.255 198.834 166.253 198.822C165.234 194.19 164.367 189.578 163.635 184.968C163.473 183.98 163.319 182.999 163.171 182.01C162.648 178.512 162.19 175.019 161.802 171.524C161.515 168.984 161.27 166.442 161.053 163.9C161.047 163.864 161.042 163.829 161.043 163.784C161.014 163.501 160.992 163.209 160.978 162.924C160.887 161.888 160.798 160.869 160.73 159.84C160.601 158.032 160.487 156.222 160.392 154.403C160.361 153.907 160.335 153.401 160.311 152.913C159.821 143.275 159.737 133.69 159.995 124.213C160.368 133.687 161.059 143.2 162.151 152.685C162.158 152.782 162.169 152.897 162.184 153.004C162.579 156.401 163.015 159.797 163.514 163.18C163.941 166.132 164.422 169.063 164.954 172C165.47 174.983 166.058 177.962 166.685 180.922C166.73 181.178 166.779 181.407 166.83 181.653C167.899 186.61 169.426 193.398 170.892 198.863L166.262 198.866Z" fill="#F3D0DD"/>
</g>
</g>
<g id="Group_22">
<path id="Vector_19" d="M62.6684 189.07C58.9467 189.07 55.6923 191.064 53.9116 194.042C53.479 193.956 53.0335 193.906 52.5756 193.906C51.2942 193.906 50.098 194.263 49.0734 194.876C47.2361 188.079 41.0301 183.077 33.6515 183.077C27.6015 183.077 22.3414 186.441 19.6297 191.399C18.8185 191.117 17.9478 190.962 17.0404 190.962C12.7164 190.962 9.20708 194.443 9.15771 198.756H17.6788H24.9231H46.0355H49.6242H52.4834H59.1156H72.8534C72.5866 193.361 68.1288 189.07 62.6684 189.07Z" fill="#B3CB51"/>
<g id="Group_23">
<path id="Vector_20" d="M54.0568 194.071L53.9115 194.042L53.9115 194.042C53.8631 194.032 53.814 194.025 53.7654 194.016L52.8374 198.649L49.7466 198.609C49.6557 198.137 49.3234 196.333 49.2389 194.784C49.1838 194.815 49.1273 194.844 49.0732 194.876C49.0286 194.711 48.9792 194.548 48.9294 194.385C48.9686 196.176 49.4113 198.448 49.4729 198.755H49.6241H52.4833H53.1185L54.0568 194.071Z" fill="#C6E05A"/>
<path id="Vector_21" d="M21.8174 198.756C20.6833 196.746 20.1216 193.618 19.8429 191.024C19.7706 191.148 19.6987 191.273 19.6296 191.399C19.6114 191.393 19.5924 191.389 19.5742 191.383C19.8582 193.868 20.4102 196.771 21.4808 198.756L21.8174 198.756Z" fill="#C6E05A"/>
</g>
<g id="Group_24">
<path id="Vector_22" d="M126.696 199.543H0.695537C0.374135 199.543 0.113525 199.282 0.113525 198.961C0.113525 198.639 0.374084 198.379 0.695537 198.379H126.696C127.018 198.379 127.278 198.639 127.278 198.961C127.278 199.282 127.018 199.543 126.696 199.543Z" fill="#738F1F"/>
</g>
</g>
<g id="Group_25">
<path id="Vector_23" d="M166.093 189.07C162.371 189.07 159.117 191.064 157.336 194.042C156.903 193.956 156.458 193.906 156 193.906C154.718 193.906 153.522 194.263 152.498 194.876C150.66 188.079 144.454 183.077 137.076 183.077C131.026 183.077 125.766 186.441 123.054 191.399C122.243 191.117 121.372 190.962 120.465 190.962C116.141 190.962 112.631 194.443 112.582 198.756H121.103H128.347H149.46H153.048H155.908H162.54H176.278C176.011 193.361 171.553 189.07 166.093 189.07Z" fill="#B3CB51"/>
<g id="Group_26">
<path id="Vector_24" d="M157.481 194.071L157.336 194.042L157.336 194.042C157.288 194.032 157.239 194.025 157.19 194.016L156.262 198.649L153.171 198.609C153.08 198.137 152.748 196.333 152.663 194.784C152.608 194.815 152.552 194.844 152.498 194.876C152.453 194.711 152.404 194.548 152.354 194.385C152.393 196.176 152.836 198.448 152.897 198.755H153.049H155.908H156.543L157.481 194.071Z" fill="#C6E05A"/>
<path id="Vector_25" d="M125.242 198.756C124.108 196.746 123.546 193.618 123.267 191.024C123.195 191.148 123.123 191.273 123.054 191.399C123.036 191.393 123.017 191.389 122.999 191.383C123.283 193.868 123.835 196.771 124.905 198.756L125.242 198.756Z" fill="#C6E05A"/>
</g>
<g id="Group_27">
<path id="Vector_26" d="M230.121 199.543H104.12C103.798 199.543 103.538 199.282 103.538 198.961C103.538 198.639 103.798 198.379 104.12 198.379H230.121C230.442 198.379 230.703 198.639 230.703 198.961C230.703 199.282 230.442 199.543 230.121 199.543Z" fill="#738F1F"/>
</g>
</g>
<path id="Vector_27" d="M64.0552 131.074L135.311 128.775L167.12 135.474L95.8648 137.774L64.0552 131.074Z" fill="#CC9999"/>
<g id="Group_28">
<path id="Vector_28" d="M95.7341 218.723L64.0689 208.709L64.0552 131.074L95.8648 137.774L95.7341 218.723Z" fill="#CC9999"/>
</g>
<path id="Vector_29" d="M81.5581 214.24V134.761L73.3999 133.042V211.66L81.5581 214.24Z" fill="#AD2B5E"/>
<g id="Group_29">
<g id="Group_30">
<g id="Group_31">
<path id="Vector_30" d="M93.9845 76.9704C94.2137 76.8997 91.7061 73.656 85.4568 68.0517C79.2076 62.4475 75.2224 64.1795 72.293 62.8237C69.3636 61.4679 67.6343 60.7461 67.6343 60.7461C67.6343 60.7461 69.2418 63.5142 70.7787 66.0531C72.3154 68.592 83.4385 80.2251 93.9845 76.9704Z" fill="#87A825"/>
<path id="Vector_31" d="M95.3783 77.4191L95.3077 77.1898L95.343 77.3044L95.3088 77.1894C95.1095 77.2378 92.4795 76.9588 88.5757 75.4962C85.1293 74.2049 79.9254 71.6892 74.7049 67.0364L74.5454 67.2154C84.5485 76.1312 94.9022 77.5659 95.3783 77.4191Z" fill="#B3CB51"/>
<path id="Vector_32" d="M86.2373 74.5663C84.2705 72.8822 79.4429 68.03 79.3943 67.9812L79.2244 68.1503C79.2729 68.1993 84.1073 73.0583 86.0813 74.7486L86.2373 74.5663Z" fill="#B3CB51"/>
<path id="Vector_33" d="M83.1264 73.0029C83.0645 72.9875 76.9229 71.4411 74.906 68.8772L74.7175 69.0255C76.7853 71.6542 82.8131 73.1724 83.0687 73.2357L83.1264 73.0029Z" fill="#B3CB51"/>
</g>
<g id="Group_32">
<path id="Vector_34" d="M94.7142 68.3636C94.7142 68.3636 101.301 61.551 101.145 53.3558C100.989 45.1607 99.2327 43.2642 99.6906 41.3855C98.8014 41.8213 98.12 47.1703 95.3027 50.004C92.4854 52.8378 93.2985 58.7102 93.8301 61.3557C94.3618 64.0011 93.3785 67.9244 93.3785 67.9244C93.3785 67.9244 93.6135 70.0732 94.7142 68.3636Z" fill="#87A825"/>
<path id="Vector_35" d="M98.5994 56.1751C98.9512 53.7893 99.2346 50.9634 99.4058 47.6154L99.1586 47.6028C98.1959 66.4059 93.5933 68.6686 93.5471 68.6892L93.6459 68.9163C93.8065 68.8468 96.9527 67.3426 98.5994 56.1751Z" fill="#B3CB51"/>
<path id="Vector_36" d="M97.3035 62.3883C97.3315 62.1521 97.9727 56.5675 96.8694 53.4775L96.6362 53.5609C97.7199 56.5958 97.0645 62.3021 97.0578 62.3593L97.3035 62.3883Z" fill="#B3CB51"/>
<path id="Vector_37" d="M100.963 51.5192L100.795 51.3376C100.313 51.7846 98.561 55.1429 98.4868 55.2857L98.7062 55.4001C99.2071 54.4382 100.589 51.8662 100.963 51.5192Z" fill="#B3CB51"/>
</g>
<g id="Group_33">
<path id="Vector_38" d="M84.4188 48.0087C84.4188 48.0087 87.1569 46.3716 89.6863 38.1689C92.2157 29.9663 90.4929 26.09 89.8224 24.2036C89.152 22.3171 89.7386 20.7542 89.7386 20.7542C89.7386 20.7542 88.5479 25.4002 86.6362 27.1951C84.7244 28.99 82.6606 34.3182 83.7072 36.8146C84.7538 39.3111 85.2548 46.2508 84.4188 48.0087Z" fill="#87A825"/>
<path id="Vector_39" d="M89.1048 34.0282C89.3994 32.0303 89.481 29.9762 89.1966 28.0063L88.9593 28.0406C90.1791 36.4939 84.5802 46.5631 84.5232 46.6639L84.7324 46.7816C84.7763 46.7037 88.1231 40.6854 89.1048 34.0282Z" fill="#B3CB51"/>
<path id="Vector_40" d="M88.1728 38.1154C88.4429 36.2839 87.4336 31.6803 87.39 31.4836L87.1558 31.5355C87.1664 31.5831 88.1991 36.2922 87.9355 38.0799C87.9336 38.0929 87.9317 38.1058 87.9296 38.1185L88.1664 38.157C88.1687 38.1434 88.1707 38.1293 88.1728 38.1154Z" fill="#B3CB51"/>
<path id="Vector_41" d="M89.8297 36.0643L89.613 35.9612C88.6261 38.0367 87.0256 41.0444 87.0095 41.0745L87.2213 41.1873C87.2373 41.1572 88.8403 38.1447 89.8297 36.0643Z" fill="#B3CB51"/>
</g>
<path id="Vector_42" d="M86.0039 56.4299C86.0039 56.4299 76.8307 55.9966 71.4985 50.1093C66.1662 44.222 66.1465 41.7172 64.5757 40.6953C65.4927 40.4123 69.5258 43.7349 73.396 43.8637C77.2663 43.9925 80.5923 48.6769 81.9739 50.897C83.3555 53.1171 86.655 55.2329 86.655 55.2329C86.655 55.2329 87.916 56.9055 86.0039 56.4299Z" fill="#87A825"/>
<path id="Vector_43" d="M87.125 56.1103L87.0439 55.8845C86.9975 55.9008 82.2464 57.3613 69.08 44.7297L68.9138 44.9029C82.2323 57.6802 86.9315 56.1805 87.125 56.1103Z" fill="#B3CB51"/>
<path id="Vector_44" d="M80.3628 53.7486C80.32 53.7126 76.0678 50.1209 74.817 47.2593L74.5972 47.3554C75.8706 50.2687 80.032 53.7841 80.2085 53.9323L80.3628 53.7486Z" fill="#B3CB51"/>
<path id="Vector_45" d="M74.6563 49.7055C74.5091 49.6542 71.0427 48.4472 70.4053 48.4522L70.4072 48.692C70.9019 48.6881 73.5852 49.5859 74.5773 49.9321L74.6563 49.7055Z" fill="#B3CB51"/>
<path id="Vector_46" d="M77.4348 35.5554C77.4348 35.5554 74.5267 36.867 66.3497 34.2556C58.1728 31.6442 55.9762 28.0154 54.8112 26.3873C53.6461 24.7591 52.0283 24.3474 52.0283 24.3474C52.0283 24.3474 56.5215 26.0252 59.0869 25.4819C61.6524 24.9387 67.2042 26.2896 68.6549 28.575C70.1055 30.8604 75.5145 35.237 77.4348 35.5554Z" fill="#87A825"/>
<path id="Vector_47" d="M76.2487 35.1118L76.2716 34.873C76.1565 34.862 64.6926 33.7028 58.4534 27.8716L58.2896 28.0469C64.5891 33.9344 76.1329 35.1007 76.2487 35.1118Z" fill="#B3CB51"/>
<path id="Vector_48" d="M67.3123 32.7855C65.7074 32.0149 62.3854 28.4249 62.3521 28.3887L62.1758 28.5514C62.3133 28.7005 65.5625 32.2115 67.2086 33.0019L67.3123 32.7855Z" fill="#B3CB51"/>
<path id="Vector_49" d="M70.2354 33.9576L70.264 33.7193C70.23 33.7153 66.8471 33.3101 64.5798 32.9341L64.5405 33.1707C66.8133 33.5477 70.2015 33.9536 70.2354 33.9576Z" fill="#B3CB51"/>
<g id="Group_34">
<path id="Vector_50" d="M73.3126 28.1349C73.1584 28.2254 72.6353 25.2149 72.6955 18.9591C72.7556 12.7033 75.7125 11.3824 76.4399 9.08927C77.1673 6.79615 77.64 5.48193 77.64 5.48193C77.64 5.48193 78.3541 7.75822 78.9777 9.88033C79.6014 12.0024 80.4064 23.9708 73.3126 28.1349Z" fill="#87A825"/>
<path id="Vector_51" d="M77.3621 17.0785C77.5706 15.6645 77.7026 14.1474 77.7231 12.5365L77.5442 12.5342C77.4122 22.9859 72.8132 28.9423 72.7671 28.9734L72.8585 29.127C73.1271 28.9693 76.2781 24.4296 77.3621 17.0785Z" fill="#B3CB51"/>
<path id="Vector_52" d="M76.0651 22.6702C76.128 20.7342 75.8867 15.6316 75.8842 15.5803L75.7056 15.5888C75.708 15.64 75.949 20.7356 75.8864 22.6643L76.0651 22.6702Z" fill="#B3CB51"/>
<path id="Vector_53" d="M78.6098 15.1103C78.692 14.5534 78.7107 14.0174 78.6322 13.5417L78.4558 13.5708C78.8516 15.9695 76.6138 20.1254 76.5911 20.1672L76.7482 20.2525C76.8238 20.1135 78.2674 17.4326 78.6098 15.1103Z" fill="#B3CB51"/>
</g>
<path id="Vector_54" d="M95.0765 95.968C95.0765 95.968 96.8804 59.5045 65.272 20.5466C66.206 19.505 60.9813 15.5933 66.206 19.505C71.4307 23.4167 96.4192 56.3826 99.891 94.4822C98.1984 95.5067 95.0765 95.968 95.0765 95.968Z" fill="#87A825"/>
<path id="Vector_55" d="M66.2724 21.7976C66.2569 21.9758 63.9597 19.5194 58.8955 15.8462C53.8314 12.173 54.4675 8.99768 53.0198 7.07631C51.572 5.15488 50.7747 4.0083 50.7747 4.0083C50.7747 4.0083 53.0437 4.74495 55.1347 5.46609C57.0509 6.12689 66.5631 13.3899 67.4278 20.693C67.5066 21.3593 66.3322 21.1125 66.2724 21.7976Z" fill="#87A825"/>
<path id="Vector_56" d="M97.6694 95.3353C97.668 95.2476 97.4853 86.4194 93.5968 72.8881C90.0087 60.4025 82.4409 41.2412 66.7646 20.8618C66.4363 20.4348 66.0763 20.0031 65.6948 19.5788C63.7836 17.4534 57.4259 10.4156 55.8595 9.08838L55.7439 9.22475C57.3017 10.5447 63.6525 17.5751 65.5619 19.6984C65.9403 20.1194 66.2973 20.5474 66.6229 20.9708C82.2822 41.328 89.8412 60.4669 93.4249 72.9375C97.3069 86.4463 97.4893 95.2509 97.4905 95.3382L97.6694 95.3353Z" fill="#B3CB51"/>
<path id="Vector_57" d="M63.5829 17.326C63.5125 17.0979 61.2548 12.8624 60.0654 11.1382L59.9182 11.2397C61.0962 12.9474 63.3411 17.1516 63.412 17.3787L63.5829 17.326Z" fill="#B3CB51"/>
<path id="Vector_58" d="M60.2183 13.6588C60.1962 13.6503 57.9905 12.7941 56.6926 11.7969L56.5837 11.9387C57.9022 12.9518 60.1316 13.8171 60.154 13.8257L60.2183 13.6588Z" fill="#B3CB51"/>
</g>
</g>
<g id="Group_35">
<path id="Vector_59" d="M142.013 150.53C142.013 150.53 148.352 94.2515 103.203 30.8624C104.75 29.3406 97.0415 22.7764 104.75 29.3406C112.459 35.9049 147.941 89.3732 149.611 148.698C146.891 150.119 142.013 150.53 142.013 150.53Z" fill="#738F1F"/>
<path id="Vector_60" d="M144.665 136.39C146.258 137.208 103.144 142.721 91.1372 135.787C102.912 135.343 133.151 130.478 144.665 136.39Z" fill="#738F1F"/>
<path id="Vector_61" d="M145.025 128.302C146.523 129.218 105.213 133.757 92.3127 124.674C108.338 127.049 134.198 121.685 145.025 128.302Z" fill="#738F1F"/>
<path id="Vector_62" d="M142.315 117.924C143.77 118.787 105.341 122.758 94.3481 115.49C104.88 115.455 131.798 111.683 142.315 117.924Z" fill="#738F1F"/>
<path id="Vector_63" d="M142.359 109.94C143.732 110.897 106.886 113.967 95.0195 104.543C109.455 107.442 132.434 103.025 142.359 109.94Z" fill="#738F1F"/>
<path id="Vector_64" d="M138.506 98.9249C139.796 99.8426 106.951 101.975 97.1665 94.31C106.216 94.7626 129.178 92.2925 138.506 98.9249Z" fill="#738F1F"/>
<path id="Vector_65" d="M138.175 91.0643C139.399 92.0701 107.873 93.3891 97.2373 83.5598C109.779 87.0822 129.324 83.7959 138.175 91.0643Z" fill="#738F1F"/>
<path id="Vector_66" d="M131.656 79.7702C132.817 80.6168 109.016 83.2511 100.053 76.1614C106.846 76.4223 123.264 73.6516 131.656 79.7702Z" fill="#738F1F"/>
<path id="Vector_67" d="M129.638 72.3191C130.77 73.2506 107.76 75.0884 97.6802 65.9614C107.747 69.0697 121.455 65.5884 129.638 72.3191Z" fill="#738F1F"/>
<path id="Vector_68" d="M121.253 59.2472C122.247 60.0536 103.125 63.8159 95.4197 57.0292C100.94 56.9835 114.071 53.4204 121.253 59.2472Z" fill="#738F1F"/>
<path id="Vector_69" d="M119.153 51.7768C120.128 52.6704 101.598 55.5881 92.8599 46.7847C101.211 49.4794 112.102 45.3189 119.153 51.7768Z" fill="#738F1F"/>
<path id="Vector_70" d="M147.923 131.142C146.969 132.658 186.881 115.447 193.684 103.365C183.324 108.979 154.822 120.191 147.923 131.142Z" fill="#738F1F"/>
<path id="Vector_71" d="M143.396 123.01C142.573 124.561 180.437 107.431 186.914 93.0437C174.332 103.249 149.344 111.801 143.396 123.01Z" fill="#738F1F"/>
<path id="Vector_72" d="M142.001 114.267C141.189 115.751 176.283 99.5987 182.043 87.7463C172.962 93.0791 147.874 103.54 142.001 114.267Z" fill="#738F1F"/>
<path id="Vector_73" d="M139.895 102.944C139.2 104.466 172.474 88.3452 177.888 74.1917C166.941 84.0377 144.916 91.9383 139.895 102.944Z" fill="#738F1F"/>
<path id="Vector_74" d="M138.22 93.38C137.577 94.8271 166.93 79.9365 171.448 68.3572C163.89 73.3552 142.87 82.9223 138.22 93.38Z" fill="#738F1F"/>
<path id="Vector_75" d="M133.365 84.0447C132.823 85.534 160.627 70.6147 164.775 56.7395C155.775 66.1575 137.28 73.2824 133.365 84.0447Z" fill="#738F1F"/>
<path id="Vector_76" d="M131.123 75.1666C130.555 76.4866 152.38 66.6334 156.484 55.9675C150.77 59.6512 135.23 65.6274 131.123 75.1666Z" fill="#738F1F"/>
<path id="Vector_77" d="M126.156 65.2139C125.656 66.5921 146.395 56.4565 150.423 43.4683C143.342 51.2695 129.771 55.2542 126.156 65.2139Z" fill="#738F1F"/>
<path id="Vector_78" d="M121.275 55.3025C120.83 56.5025 139.203 50.0029 142.378 40.2383C137.604 43.0101 124.489 46.6303 121.275 55.3025Z" fill="#738F1F"/>
<path id="Vector_79" d="M115.112 46.745C114.728 48.011 132.162 41.0857 135.199 29.0596C129.384 35.6314 117.892 37.5967 115.112 46.745Z" fill="#738F1F"/>
<path id="Vector_80" d="M112.597 41.1971C113.439 41.8891 101.919 47.4938 95.2625 41.6031C98.8406 41.0062 106.513 36.1961 112.597 41.1971Z" fill="#738F1F"/>
<path id="Vector_81" d="M110.331 37.9391C110.434 39.0239 121.522 32.6156 120.357 23.803C117.862 26.4337 109.584 30.0992 110.331 37.9391Z" fill="#738F1F"/>
<path id="Vector_82" d="M108.074 35.7256C108.925 36.5052 97.585 41.2218 89.7678 33.4548C95.8513 35.2647 101.923 30.0922 108.074 35.7256Z" fill="#738F1F"/>
<path id="Vector_83" d="M106.265 32.719C106.489 33.8512 94.5592 30.9329 92.8628 20.0444C96.6916 25.1066 104.647 24.5364 106.265 32.719Z" fill="#738F1F"/>
</g>
<g id="Group_36">
<path id="Vector_84" d="M128.339 85.8882C120.488 78.7679 117.792 92.3033 113.458 92.5941C109.237 92.9467 103.883 83.5912 104.212 72.1315C104.787 60.4859 96.5812 47.4311 89.6441 47.9943C82.9223 48.5212 86.9374 59.2936 86.8887 63.3898C86.8504 66.9706 66.3848 54.5457 60.3084 40.319C54.0421 25.2668 45.5728 23.5617 43.0271 25.2872C40.2456 26.9847 39.6536 33.255 42.8116 38.3728C46.1397 43.2945 26.8904 30.0963 18.5909 29.2326C16.9352 28.9512 15.4007 29.0195 14.1043 29.3442C11.7124 29.7045 10.4574 30.8947 10.1391 32.3617C9.61782 33.7744 10.0381 35.4504 11.678 37.114C12.4952 38.1246 13.5953 39.0738 14.9494 39.8611C21.5813 43.0863 41.6688 50.5591 35.9591 51.0823C30.3455 51.4024 26.2728 56.0937 26.276 59.1507C26.4029 62.3805 29.9717 66.1926 43.797 64.8163C58.5356 63.4728 70.227 83.6489 65.9282 83.5519C62.1714 83.4676 53.1823 81.8412 52.1878 87.8751C51.1578 93.7521 56.3166 100.466 66.0954 101.408C76.0194 102.201 84.4998 108.23 81.699 111.311C78.9089 114.26 67.7 113.162 68.2301 120.493C68.4237 127.485 84.7543 125.931 93.6094 132.919C93.6318 132.937 93.6533 132.954 93.6755 132.971C95.4188 134.325 98.8808 136.259 102.468 138.385C109.542 142.628 117.679 141.08 121.286 132.692C123.057 128.524 124.444 124.222 124.78 121.612C124.784 121.58 124.789 121.547 124.793 121.514C126.611 108.894 136.281 93.5198 128.339 85.8882Z" fill="#B3CB51"/>
<path id="Vector_85" d="M116.356 156.151C114.087 142.884 110.183 130.246 104.864 118.428C99.5463 106.61 92.8194 95.6162 84.9161 85.6271C77.0119 75.6348 67.9289 66.6576 57.8927 58.8066C52.8749 54.8783 47.616 51.2352 42.1516 47.8538C39.4211 46.1594 36.6363 44.5351 33.8101 42.9539C32.3988 42.1596 30.969 41.3927 29.5413 40.6092C28.103 39.8487 26.6742 39.0522 25.2224 38.2896C25.3734 38.0523 25.5246 37.8151 25.6759 37.5779C27.1215 38.3263 28.5418 39.1061 29.9851 39.8581C31.413 40.6302 32.8498 41.3887 34.2671 42.1751C37.1066 43.7399 39.9105 45.3516 42.6626 47.0345C48.1704 50.3936 53.4815 54.0203 58.5548 57.9383C68.7029 65.7683 77.9137 74.7484 85.9497 84.7666C93.9853 94.7822 100.849 105.827 106.299 117.724C111.75 129.619 115.783 142.367 118.166 155.755C117.562 155.888 116.959 156.019 116.356 156.151Z" fill="#738F1F"/>
<path id="Vector_86" d="M109.452 128.04C110.143 125.823 110.826 123.626 111.497 121.41C112.169 119.198 112.827 116.977 113.498 114.768C114.169 112.559 114.841 110.353 115.588 108.208C115.964 107.137 116.349 106.076 116.789 105.062C117.229 104.051 117.707 103.069 118.311 102.229C118.363 102.293 118.416 102.356 118.468 102.42C117.918 103.294 117.491 104.307 117.101 105.348C116.712 106.391 116.375 107.483 116.048 108.582C115.398 110.783 114.819 113.046 114.239 115.31C113.659 117.574 113.089 119.851 112.502 122.118C111.92 124.385 111.316 126.651 110.715 128.895C110.295 128.607 109.874 128.322 109.452 128.04Z" fill="#738F1F"/>
<path id="Vector_87" d="M105.094 117.163C103.094 116.859 101.085 116.651 99.0948 116.517C97.1037 116.387 95.1227 116.333 93.1607 116.378C91.1995 116.424 89.2533 116.557 87.3479 116.845C86.3961 116.99 85.4506 117.166 84.5298 117.413C83.6102 117.661 82.7057 117.965 81.8706 118.409C81.8387 118.352 81.8068 118.295 81.7749 118.238C82.5991 117.736 83.4961 117.374 84.4079 117.069C85.3218 116.764 86.2592 116.53 87.2054 116.325C89.0991 115.919 91.0344 115.664 92.9874 115.494C94.941 115.323 96.9161 115.248 98.9045 115.246C100.896 115.248 102.892 115.318 104.921 115.487C104.982 116.046 105.039 116.605 105.094 117.163Z" fill="#738F1F"/>
<path id="Vector_88" d="M91.3147 93.839C91.4481 91.5575 91.5803 89.2947 91.693 87.014C91.8099 84.7371 91.9104 82.4527 92.0245 80.1734C92.1395 77.8947 92.256 75.6155 92.4585 73.374C92.5611 72.2542 92.6776 71.1405 92.8558 70.0578C93.0365 68.978 93.2592 67.9153 93.6382 66.957C93.704 67.0044 93.7697 67.0518 93.8355 67.0994C93.5168 68.0772 93.3503 69.1553 93.2259 70.2513C93.1031 71.3492 93.0419 72.4791 92.992 73.613C92.896 75.8835 92.8827 78.1919 92.8688 80.4997C92.8552 82.8081 92.8533 85.1219 92.8323 87.4277C92.815 89.733 92.7774 92.0395 92.7367 94.3223C92.2627 94.1583 91.7886 93.9973 91.3147 93.839Z" fill="#738F1F"/>
<path id="Vector_89" d="M56.8717 57.7471C56.2589 55.5499 55.6484 53.3685 55.0123 51.1756C54.3806 48.9845 53.729 46.7913 53.0896 44.5965C52.4508 42.4025 51.8113 40.206 51.2635 38.0168C50.9919 36.9226 50.7335 35.8295 50.5441 34.7457C50.3572 33.6635 50.2174 32.5841 50.2588 31.5527C50.3369 31.5762 50.4153 31.5999 50.4934 31.6236C50.5153 32.6538 50.7145 33.7296 50.9593 34.8088C51.2062 35.889 51.5215 36.9793 51.848 38.0699C52.5062 40.2518 53.2525 42.4417 53.9955 44.6307C54.739 46.8198 55.4928 49.0086 56.2237 51.1952C56.9578 53.3796 57.6701 55.5713 58.3704 57.7383C57.8699 57.7386 57.3704 57.7415 56.8717 57.7471Z" fill="#738F1F"/>
<path id="Vector_90" d="M86.0125 86.8503C84.0097 87.0392 82.0196 87.3233 80.0645 87.6725C78.1091 88.026 76.1805 88.4495 74.2933 88.9638C72.4056 89.4773 70.554 90.0727 68.7751 90.8056C67.8865 91.1735 67.0122 91.5687 66.1762 92.0264C65.3424 92.4844 64.5349 92.9935 63.8268 93.6199C63.7832 93.5726 63.7396 93.5256 63.696 93.4785C64.3817 92.7988 65.1679 92.2373 65.9817 91.7253C66.7972 91.2137 67.6526 90.7645 68.5215 90.3413C70.2617 89.4976 72.077 88.7887 73.9283 88.1568C75.7803 87.5249 77.6734 86.9795 79.5969 86.5002C81.5238 86.0248 83.4706 85.6116 85.4713 85.2869C85.655 85.8077 85.8354 86.3288 86.0125 86.8503Z" fill="#738F1F"/>
<path id="Vector_91" d="M62.0422 62.0841C59.7753 61.2464 57.476 60.5141 55.1845 59.8802C52.8913 59.2491 50.5948 58.7149 48.309 58.3024C46.0231 57.8902 43.7444 57.5892 41.4999 57.4674C40.3784 57.4081 39.2634 57.3851 38.1717 57.4401C37.0816 57.4963 36.0056 57.6149 35.0029 57.8832C34.9717 57.8261 34.9406 57.7691 34.9094 57.712C35.9066 57.3898 36.9808 57.219 38.0705 57.111C39.1622 57.0037 40.2785 56.9754 41.4027 56.9838C43.6531 57.0035 45.9443 57.2027 48.2475 57.5138C50.5514 57.825 52.8705 58.2591 55.1936 58.7914C57.5187 59.3281 59.8394 59.9573 62.1772 60.7099C62.1341 61.1687 62.0892 61.6267 62.0422 62.0841Z" fill="#738F1F"/>
</g>
<g id="Group_37">
<g id="Group_38">
<path id="Vector_92" d="M101.182 131.016C86.4029 142.372 75.129 141.448 69.5853 136.677C66.9086 134.374 67.8468 130.011 71.2041 128.915C85.9082 124.117 98.0054 129.733 100.358 130.613L101.182 131.016Z" fill="#87A825"/>
<g id="Group_39">
<path id="Vector_93" d="M100.415 130.641L101.182 131.016C101.071 131.101 100.961 131.185 100.851 131.269C98.0855 131.401 82.8915 132.435 73.2571 131.927C81.4504 132.359 97.4756 130.874 100.415 130.641Z" fill="#96BA29"/>
</g>
</g>
<g id="Group_40">
<path id="Vector_94" d="M78.6117 114.38C86.0974 101.124 84.0557 92.1137 79.561 88.1785C77.3907 86.2784 73.9703 87.5381 73.4699 90.3788C71.2783 102.82 77.2093 111.958 78.1914 113.759L78.6117 114.38Z" fill="#87A825"/>
<g id="Group_41">
<path id="Vector_95" d="M78.2203 113.802L78.6115 114.38C78.6676 114.28 78.7224 114.182 78.7775 114.083C78.5672 111.831 77.658 99.426 76.1406 91.6934C77.4311 98.2695 78.0705 111.399 78.2203 113.802Z" fill="#96BA29"/>
</g>
</g>
<g id="Group_42">
<path id="Vector_96" d="M107.928 135.804C111.683 121.052 107.354 112.89 101.986 110.268C99.394 109.003 96.4226 111.114 96.6832 113.986C97.8246 126.568 105.941 133.834 107.36 135.316L107.928 135.804Z" fill="#87A825"/>
<g id="Group_43">
<path id="Vector_97" d="M107.399 135.349L107.928 135.804C107.956 135.694 107.983 135.584 108.011 135.474C107.219 133.356 103.094 121.622 99.6052 114.556C102.572 120.565 106.626 133.069 107.399 135.349Z" fill="#96BA29"/>
</g>
</g>
<g id="Group_44">
<path id="Vector_98" d="M66.8299 110.343C54.7589 119.617 45.5506 118.863 41.0226 114.966C38.8363 113.084 39.6026 109.521 42.3447 108.626C54.3546 104.707 64.2354 109.294 66.1569 110.014L66.8299 110.343Z" fill="#87A825"/>
<g id="Group_45">
<path id="Vector_99" d="M66.2035 110.036L66.8299 110.343C66.7395 110.412 66.6495 110.48 66.5594 110.549C64.301 110.657 51.8909 111.501 44.0217 111.086C50.7139 111.439 63.8028 110.226 66.2035 110.036Z" fill="#96BA29"/>
</g>
</g>
<g id="Group_46">
<path id="Vector_100" d="M53.0067 102.18C60.8571 92.1339 60.2883 84.4165 57.0558 80.5972C55.4949 78.753 52.5052 79.3701 51.737 81.6605C48.3725 91.6921 52.1468 99.9993 52.7358 101.614L53.0067 102.18Z" fill="#87A825"/>
<g id="Group_47">
<path id="Vector_101" d="M52.7546 101.653L53.0068 102.179C53.0656 102.104 53.1234 102.029 53.1813 101.954C53.2875 100.064 54.0793 89.6756 53.7855 83.082C54.0353 88.6894 52.9299 99.6434 52.7546 101.653Z" fill="#96BA29"/>
</g>
</g>
<g id="Group_48">
<path id="Vector_102" d="M44.3423 96.5226C34.1106 104.129 26.4091 103.374 22.6687 100.051C20.8626 98.446 21.5515 95.4721 23.8598 94.7592C33.9694 91.6373 42.1833 95.6105 43.783 96.2382L44.3423 96.5226Z" fill="#87A825"/>
<g id="Group_49">
<path id="Vector_103" d="M43.8218 96.2581L44.3424 96.5228C44.2658 96.5798 44.1894 96.6358 44.1131 96.6918C42.2203 96.7525 31.8163 97.2939 25.2317 96.8415C30.8314 97.2262 41.8088 96.3848 43.8218 96.2581Z" fill="#96BA29"/>
</g>
</g>
<g id="Group_50">
<path id="Vector_104" d="M36.1984 86.6433C42.6034 79.4719 42.5573 73.636 40.3136 70.6018C39.2303 69.1367 36.9498 69.4531 36.2584 71.1388C33.2299 78.5215 35.6592 84.9599 36.0225 86.204L36.1984 86.6433Z" fill="#87A825"/>
<g id="Group_51">
<path id="Vector_105" d="M36.0347 86.2344L36.1984 86.6433C36.2464 86.5896 36.2935 86.5361 36.3408 86.4825C36.5144 85.0649 37.6243 77.2866 37.7296 72.3101C37.64 76.5423 36.266 84.731 36.0347 86.2344Z" fill="#96BA29"/>
</g>
</g>
<g id="Group_52">
<path id="Vector_106" d="M30.4819 78.249C31.3845 68.6786 27.8863 64.0072 24.2808 62.8941C22.5398 62.3567 20.8919 63.9632 21.335 65.7302C23.2757 73.4693 29.0495 77.2133 30.0797 77.9995L30.4819 78.249Z" fill="#87A825"/>
</g>
<path id="Vector_107" d="M110.321 150.909C110.017 146.881 103.864 137.55 103.163 136.708C102.458 135.862 101.738 135.024 100.997 134.203C99.5192 132.558 97.9947 130.949 96.4048 129.414C93.2281 126.346 89.8452 123.482 86.1799 121.123C85.9514 120.975 85.7256 120.821 85.4946 120.678L84.7933 120.267C84.3201 119.994 83.8704 119.714 83.3773 119.446C82.3894 118.91 81.4029 118.372 80.4047 117.847C78.4155 116.788 76.4064 115.752 74.3953 114.716C70.3698 112.647 66.3223 110.598 62.2954 108.492C58.2727 106.375 54.2546 104.236 50.3445 101.86C49.8554 101.564 49.3655 101.27 48.8843 100.957C48.3995 100.642 47.921 100.356 47.4318 100.017C46.4234 99.349 45.5495 98.5657 44.6897 97.7775C43.0037 96.1718 41.491 94.4396 40.0598 92.6553C37.2108 89.0762 34.6589 85.306 32.2274 81.4696C29.8069 77.6258 27.507 73.7138 25.3481 69.7234L25.5228 69.6255C27.8537 73.5073 30.3238 77.3071 32.9027 81.0216C35.4912 84.7276 38.1956 88.3574 41.1488 91.7431C42.6291 93.4289 44.1815 95.0484 45.8453 96.496C46.6862 97.2001 47.5404 97.8966 48.4509 98.4393C48.906 98.7261 49.4132 99.0007 49.8914 99.2818C50.3731 99.5656 50.8675 99.8328 51.3604 100.102C55.299 102.259 59.3781 104.203 63.4669 106.125C67.5621 108.039 71.6905 109.9 75.8161 111.792C77.8788 112.74 79.9426 113.69 82.0007 114.669C83.031 115.153 84.0575 115.655 85.0851 116.154C85.599 116.404 86.1274 116.697 86.6482 116.968L87.4322 117.382C87.6894 117.526 87.939 117.68 88.1929 117.829C92.2651 120.2 95.9639 123.064 99.4445 126.135C101.186 127.672 102.855 129.282 104.482 130.936C105.297 131.763 106.093 132.608 106.878 133.469C107.666 134.335 118.555 145.496 118.599 150.244L110.321 150.909Z" fill="#96BA29"/>
</g>
<g id="Group_53">
<path id="Vector_108" fill-rule="evenodd" clip-rule="evenodd" d="M36.7829 109.978L32.6701 109.984C32.0028 109.986 31.3623 110.247 30.8847 110.713L25.8067 115.67C25.3118 116.154 25.0333 116.816 25.0344 117.508L25.0703 139.173C25.0726 140.588 26.2216 141.733 27.6366 141.731L41.9215 141.707C43.3365 141.705 44.4816 140.556 44.4792 139.141L44.4434 117.476C44.4423 116.784 44.1616 116.122 43.665 115.641L38.5708 110.7C38.0918 110.236 37.4503 109.976 36.7829 109.978Z" fill="#CC9999"/>
<path id="Vector_109" d="M35.8622 116.09C36.4854 115.466 36.4854 114.456 35.8622 113.833C35.239 113.21 34.2286 113.21 33.6054 113.833C32.9822 114.456 32.9822 115.466 33.6054 116.09C34.2286 116.713 35.239 116.713 35.8622 116.09Z" fill="#F0C30F"/>
<path id="Vector_110" d="M34.6966 91.9243C30.5248 91.9312 27.1373 95.7209 27.145 100.372C27.1484 102.412 28.5336 105.77 31.256 110.35L32.0636 109.985C29.4263 105.56 28.0291 102.237 28.0261 100.371C28.0192 96.2053 31.0122 92.8115 34.6981 92.8054C38.384 92.7993 41.3884 96.1832 41.3952 100.349C41.4022 104.575 34.4436 114.609 34.3735 114.71C34.2344 114.91 34.2834 115.184 34.4829 115.323C34.56 115.377 34.648 115.403 34.7351 115.402C34.874 115.402 35.0107 115.336 35.0961 115.214C35.3897 114.793 42.2837 104.849 42.2762 100.347C42.2686 95.6958 38.8684 91.9174 34.6966 91.9243Z" fill="#996633"/>
<path id="Vector_111" d="M29.6345 126.811C29.6323 125.487 30.5754 124.06 32.0736 124.058C33.5866 124.055 34.3303 125.276 34.3325 126.614C34.3347 127.923 33.3916 129.35 31.8932 129.353C30.3805 129.355 29.6368 128.149 29.6345 126.811ZM37.3246 123.918C37.761 124.034 38.067 124.266 38.3001 124.586L32.2213 134.211C31.8138 134.08 31.4645 133.877 31.2458 133.587L37.3246 123.918ZM31.625 125.382C31.5088 125.557 31.3641 125.95 31.3651 126.532C31.3665 127.419 31.6004 128.146 32.0222 128.145C32.1677 128.145 32.2986 128.101 32.3421 128.043C32.4583 127.868 32.603 127.461 32.6021 126.879C32.6006 125.992 32.3666 125.265 31.9447 125.265C31.7991 125.266 31.6685 125.324 31.625 125.382ZM35.1846 131.646C35.1824 130.322 36.1254 128.895 37.6236 128.892C39.1365 128.89 39.8803 130.11 39.8825 131.449C39.8847 132.758 38.9416 134.185 37.4432 134.188C35.9305 134.19 35.1868 132.984 35.1846 131.646ZM37.175 130.217C37.0589 130.392 36.914 130.784 36.915 131.366C36.9165 132.254 37.1504 132.981 37.5722 132.98C37.7177 132.98 37.8486 132.936 37.8921 132.877C38.0082 132.703 38.1531 132.295 38.1521 131.713C38.1506 130.826 37.9166 130.099 37.4947 130.1C37.3492 130.1 37.2186 130.158 37.175 130.217Z" fill="white"/>
</g>
<g id="Group_54">
<path id="Vector_112" d="M34.3326 101.76C29.0738 103.252 25.061 102.177 22.6687 100.051C20.8626 98.4462 21.5515 95.4723 23.8598 94.7595C27.6509 93.5887 31.1754 93.4158 34.1845 93.6899C39.1997 94.147 37.2959 100.92 34.3326 101.76Z" fill="#87A825"/>
<g id="Group_55">
<path id="Vector_113" d="M38.1215 96.9142C34.1409 97.0324 29.0456 97.1038 25.2317 96.8417C28.6462 97.0763 34.0601 96.855 38.222 96.6179C39.2744 96.5579 39.0581 96.8864 38.1215 96.9142Z" fill="#96BA29"/>
</g>
</g>
<g id="Group_56">
<path id="Vector_114" d="M167.12 135.474L166.99 216.424L95.7341 218.723L95.8648 137.774L167.12 135.474Z" fill="#FFCCCC"/>
</g>
<path id="Vector_115" d="M139.654 217.393L125.974 217.747V136.802L139.654 136.361V217.393Z" fill="#CC346F"/>
<g id="Group_57">
<g id="Group_58">
<path id="Vector_116" d="M147.573 42.152L132.39 13.0097L146.069 0.744141L162.415 28.8426L147.573 42.152Z" fill="#CC9999"/>
</g>
<path id="Vector_117" d="M162.467 28.8106C162.47 28.8092 162.473 28.8081 162.476 28.8069C162.483 28.8048 162.489 28.8031 162.495 28.8017C162.498 28.801 162.502 28.8003 162.505 28.7998C162.509 28.7991 162.513 28.7991 162.517 28.7987C162.526 28.7979 162.535 28.7979 162.544 28.7985C162.548 28.7988 162.552 28.7991 162.555 28.7997C162.565 28.801 162.574 28.8034 162.583 28.8064C162.585 28.8072 162.588 28.8076 162.59 28.8085C162.593 28.8098 162.596 28.8114 162.599 28.8129C162.605 28.8156 162.611 28.8184 162.616 28.8218C162.619 28.8239 162.622 28.8264 162.625 28.8288C162.631 28.8333 162.637 28.8376 162.642 28.8431L217.341 85.8823L197.964 56.1848L146.296 0.744655C146.293 0.742411 146.291 0.74027 146.289 0.738179C146.286 0.735221 146.282 0.732978 146.278 0.730326C146.275 0.72798 146.273 0.72548 146.269 0.72344C146.264 0.719921 146.258 0.717167 146.252 0.714413C146.249 0.713036 146.247 0.711301 146.244 0.710128C146.243 0.709924 146.243 0.709569 146.242 0.709416C146.24 0.708702 146.238 0.70865 146.236 0.708038C146.227 0.704978 146.218 0.702632 146.209 0.701255C146.207 0.701 146.206 0.700286 146.204 0.700133C146.202 0.699878 146.2 0.700338 146.197 0.700185C146.188 0.699471 146.179 0.699572 146.17 0.700388C146.168 0.700592 146.165 0.700134 146.163 0.70044C146.161 0.700644 146.16 0.701153 146.158 0.701408C146.155 0.701918 146.152 0.702734 146.148 0.703448C146.142 0.704825 146.136 0.706509 146.13 0.708549C146.126 0.709671 146.123 0.710843 146.12 0.712169C146.114 0.714719 146.107 0.71778 146.101 0.721095C146.099 0.722625 146.096 0.723951 146.093 0.725685C146.084 0.73104 146.076 0.736956 146.068 0.743943L162.415 28.8424C162.423 28.8354 162.431 28.8294 162.44 28.8241C162.442 28.8224 162.445 28.8211 162.448 28.8195C162.454 28.8162 162.46 28.8131 162.467 28.8106Z" fill="#FFCCCC"/>
<path id="Vector_118" d="M217.341 85.8822L162.642 28.8431C162.584 28.7826 162.483 28.7819 162.415 28.8423L147.573 42.1517C147.506 42.2117 147.499 42.3099 147.557 42.3703L202.255 99.4094C202.313 99.4699 202.415 99.4706 202.482 99.4106L217.325 86.1012C217.392 86.0408 217.399 85.9427 217.341 85.8822Z" fill="#FFCCCC"/>
<path id="Vector_119" d="M151.869 10.7261L138.032 23.8391L142.045 31.5414L156.225 18.2028L151.869 10.7261Z" fill="#AD2B5E"/>
<path id="Vector_120" d="M186.191 53.3997L171.155 66.978L180.627 76.8557L195.664 63.2774L186.191 53.3997Z" fill="#CC346F"/>
<path id="Vector_121" d="M151.869 10.7261L205.138 67.18L211.714 77.2582L156.226 18.2029L151.869 10.7261Z" fill="#AD2B5E"/>
<path id="Vector_122" d="M186.191 53.3996L170.555 26.7744L181.426 38.4388L195.809 63.1466L186.191 53.3996Z" fill="#CC346F"/>
<path id="Vector_123" d="M180.177 43.9816C180.066 43.8586 179.965 43.7252 179.874 43.5822C177.94 40.5184 168.308 24.8723 168.674 17.7068C168.876 13.7331 170.614 10.0761 173.567 7.40913C176.52 4.74249 180.335 3.38563 184.309 3.58815C188.282 3.79011 191.939 5.52814 194.606 8.48155C197.273 11.4342 198.63 15.2493 198.428 19.2229L198.427 19.2232C198.062 26.3882 186.89 40.9749 184.654 43.8263C184.067 44.575 183.152 44.9926 182.201 44.9432C181.419 44.9034 180.693 44.5532 180.177 43.9816ZM190.26 12.4064C188.641 10.6139 186.422 9.55908 184.011 9.43622C181.599 9.31403 179.284 10.137 177.492 11.7555C175.7 13.3738 174.645 15.5936 174.522 18.0046C174.354 21.2884 178.635 29.9788 182.616 36.8066C187.27 30.4185 192.411 22.2081 192.58 18.9253C192.702 16.5134 191.878 14.1983 190.26 12.4064Z" fill="#CC346F"/>
<path id="Vector_124" d="M180.939 44.8259C180.423 44.2543 180.148 43.4969 180.188 42.7144C180.237 41.7641 180.744 40.896 181.549 40.3879C184.613 38.4533 200.259 28.8219 207.425 29.1871L207.425 29.1868C215.628 29.6055 221.961 36.6188 221.544 44.8218C221.341 48.7961 219.603 52.4532 216.65 55.1198C213.697 57.7868 209.882 59.1434 205.908 58.9409C198.742 58.5757 184.156 47.403 181.306 45.1677C181.173 45.0631 181.05 44.9489 180.939 44.8259ZM207.127 35.0349C203.839 34.8675 195.15 39.1478 188.325 43.129C194.712 47.783 202.923 52.9255 206.206 53.0927C208.618 53.2152 210.933 52.3919 212.725 50.7735C214.518 49.155 215.572 46.9356 215.696 44.5239C215.949 39.5463 212.105 35.2884 207.126 35.0352L207.127 35.0349Z" fill="#CC346F"/>
</g>
<path id="Vector_125" opacity="0.61" d="M114.443 133.465C140.966 133.465 162.466 111.964 162.466 85.4415C162.466 58.919 140.966 37.4182 114.443 37.4182C87.9207 37.4182 66.4199 58.919 66.4199 85.4415C66.4199 111.964 87.9207 133.465 114.443 133.465Z" fill="#EFF4BE"/>
<path id="Vector_126" d="M114.935 128.869C138.647 128.869 157.869 109.647 157.869 85.9347C157.869 62.2225 138.647 43 114.935 43C91.2225 43 72 62.2225 72 85.9347C72 109.647 91.2225 128.869 114.935 128.869Z" fill="white"/>
</g>
</svg>
