<svg width="200" height="134" viewBox="0 0 200 134" fill="none" xmlns="http://www.w3.org/2000/svg">
<g id="470">
<path id="Vector" d="M127.38 98.1729C117.497 101.176 107.183 102.677 96.8538 102.974C91.704 103.123 86.5394 102.944 81.4342 102.335C76.7907 101.77 72.0725 100.938 67.6371 99.3919C63.7674 98.0542 59.6596 95.4976 60.0316 90.8453C60.0167 90.9789 60.0018 91.0979 60.0018 91.2317L59.9125 91.8113C58.8856 97.8906 57.8438 103.955 56.8167 110.034C56.6829 110.688 56.668 110.792 56.772 110.361C56.7422 110.48 56.7127 110.614 56.6829 110.733C57.4418 108.013 59.2278 105.798 60.9694 103.643C62.6809 101.532 64.452 99.4068 65.6725 96.9691C66.2976 95.7056 66.7591 94.4869 67.0567 93.1194C67.92 89.1359 68.4856 84.9741 69.1554 80.9608C69.706 77.6907 70.4205 74.3613 70.7031 71.0467C70.9265 68.4605 70.1822 66.0228 68.4409 64.0757C64.8242 60.0326 59.0196 58.9179 53.8251 58.903C48.3927 58.903 42.8858 59.8692 37.4978 58.7841C34.7445 58.2194 32.0654 57.0749 30.1305 54.9938C28.1807 52.898 26.3202 49.7618 26.5287 46.804C26.5138 46.9376 26.4989 47.0566 26.4989 47.1904C26.2756 48.647 26.0374 50.0888 25.8142 51.5454C24.9062 56.7032 24.0134 61.8759 23.1054 67.0335C23.1202 66.9592 23.1351 66.8998 23.15 66.8254C23.1203 66.9443 23.0905 67.0781 23.0607 67.1971C24.296 62.4406 29.8774 61.7865 33.9556 61.5489C34.0598 61.5489 34.6402 58.026 34.5509 58.472C34.9981 55.9876 35.4298 53.5004 35.8458 51.0105C36.2625 48.5281 36.694 46.031 37.0811 43.5488C37.1258 43.2367 37.4978 40.4424 37.5276 40.4424C35.0271 40.5909 32.3927 40.7247 30.1454 41.9139C29.1927 42.4192 28.3147 43.1178 27.6449 43.9799C26.618 45.3176 26.4245 46.923 26.1267 48.543C25.2189 53.5076 24.3705 58.4869 23.5667 63.4661C23.2989 65.1457 22.8227 66.9294 22.8969 68.6537C22.9565 69.9023 23.3882 71.1061 23.924 72.221C24.9807 74.3762 26.4394 76.3828 28.4487 77.7354C32.5267 80.4555 37.7956 80.5297 42.5136 80.3217C47.4996 80.0987 52.6196 79.5042 57.5014 80.8866C60.1209 81.6298 62.6958 82.9228 64.586 84.9145C66.4762 86.9063 67.3098 89.4183 67.0865 92.1532C67.1014 92.0194 67.1162 91.9004 67.1162 91.7668C66.7442 95.2301 67.28 92.1234 68.7236 82.4621C70.5542 72.8602 71.0754 69.7684 70.2865 73.1574C70.3162 73.0385 70.346 72.9047 70.3758 72.7857C69.572 75.9369 67.7116 78.5976 65.7022 81.1096C63.7674 83.5322 61.5051 85.9254 60.4634 88.9129C59.9571 90.3696 59.7489 91.9451 59.4809 93.4464C58.4094 99.377 57.2485 105.352 56.4894 111.328C56.3107 112.784 56.4149 114.211 57.0847 115.534C58.1562 117.63 60.2698 118.967 62.3831 119.874C64.9134 120.974 67.6669 121.613 70.3609 122.193C73.7002 122.906 77.0803 123.412 80.4818 123.709C87.2985 124.333 94.1747 124.214 100.991 123.605C108.701 122.921 116.351 121.509 123.763 119.265C123.942 119.205 124.433 115.816 124.359 116.188C124.806 113.703 125.238 111.216 125.654 108.726C126.07 106.244 126.502 103.747 126.889 101.265C126.978 100.715 127.067 100.165 127.142 99.6149C127.276 99.154 127.335 98.6636 127.38 98.1729Z" fill="#FBECFF"/>
<path id="Vector_2" d="M56.8772 110.11C57.7303 107.696 59.3616 105.656 60.963 103.677C62.3698 101.922 63.8365 100.168 64.9887 98.233C64.9887 98.233 64.9738 98.233 64.9738 98.2179H65.0038C65.2581 97.7982 65.4827 97.3782 65.7072 96.9434C66.3356 95.6686 66.7696 94.3338 67.0689 92.9543C67.0689 92.9243 67.0841 92.8792 67.0841 92.8492C67.099 92.6693 67.1138 92.3843 67.1589 91.9794C67.3534 89.2652 66.5303 86.7607 64.6445 84.7661C64.2873 84.3932 63.9074 84.0426 63.5072 83.7163C62.2798 85.2759 61.1574 86.9257 60.5141 88.8001C60.0052 90.2698 59.7956 91.8594 59.5263 93.374C58.4487 99.3578 57.2814 105.386 56.5181 111.415C56.5032 111.475 56.5032 111.55 56.5032 111.61C56.6078 111.115 56.7576 110.605 56.8772 110.11ZM56.7425 110.44C56.7125 110.575 56.6976 110.65 56.6827 110.68C56.7127 110.605 56.7276 110.515 56.7425 110.44Z" fill="url(#paint0_linear_766_7264)"/>
<path id="Vector_3" d="M23.0388 66.7784C23.0536 66.7338 23.0536 66.7037 23.0685 66.6591C23.0536 66.7338 23.0388 66.7933 23.0239 66.8678C23.0239 66.838 23.0239 66.8082 23.0388 66.7784C23.0239 66.8678 22.9941 66.9574 22.9792 67.0321C24.2163 62.2585 29.8059 61.6022 33.8899 61.3634C33.9941 61.3634 34.5754 57.8281 34.4861 58.2757C34.5159 58.0967 34.5456 57.9326 34.5754 57.7534C34.5456 57.7385 34.501 57.7236 34.4712 57.7087C34.4861 57.6938 34.501 57.6789 34.5159 57.6789C34.5456 57.6641 34.5754 57.6343 34.6052 57.6194C35.0077 55.3519 35.4101 53.0696 35.7977 50.7873C36.215 48.296 36.6472 45.79 37.0348 43.2987C37.0794 42.9855 37.4521 40.1812 37.4819 40.1812C34.9779 40.3303 32.3396 40.4646 30.089 41.6578C29.135 42.1651 28.2556 42.8661 27.585 43.7314C26.5565 45.0739 26.3628 46.6851 26.0645 48.3109C25.1554 53.2933 24.3056 58.2905 23.5008 63.2878C23.307 64.4812 23.0239 65.7193 22.8896 66.9425C22.9345 66.8529 22.9792 66.7635 23.0388 66.674V66.7784Z" fill="url(#paint1_linear_766_7264)"/>
<path id="Vector_4" d="M102.672 107.723C122.268 107.723 138.153 91.831 138.153 72.2267C138.153 52.6224 122.268 36.73 102.672 36.73C83.0762 36.73 67.1907 52.6224 67.1907 72.2267C67.1907 91.831 83.0762 107.723 102.672 107.723Z" fill="#B89BBF"/>
<path id="Vector_5" d="M105.797 57.7799L108.81 62.4566C109.285 63.1923 110.342 63.9279 111.135 64.138L116.525 65.5042C119.854 66.345 120.753 69.1824 118.586 71.8098L115.045 76.0659C114.517 76.749 114.094 77.9576 114.147 78.7984L114.464 84.3157C114.675 87.7311 112.244 89.465 109.074 88.204L103.895 86.1547C103.102 85.8394 101.781 85.8394 100.988 86.1547L95.8095 88.204C92.6389 89.465 90.208 87.6784 90.4193 84.3157L90.7364 78.7984C90.7893 77.9576 90.3667 76.6964 89.8382 76.0659L86.2976 71.8098C84.1309 69.1824 85.0291 66.345 88.3584 65.5042L93.7487 64.138C94.5942 63.9279 95.6511 63.1396 96.0738 62.4566L99.086 57.7799C100.988 54.9425 103.948 54.9425 105.797 57.7799Z" fill="white"/>
<path id="Vector_6" d="M67.1162 35.0656C76.9991 32.0629 87.3133 30.5618 97.6427 30.2646C102.792 30.1159 107.957 30.2942 113.062 30.9035C117.706 31.4685 122.424 32.3008 126.859 33.8466C130.729 35.1843 134.837 37.7409 134.465 42.3932C134.48 42.2596 134.494 42.1406 134.494 42.0068L134.584 41.4272C135.611 35.3479 136.653 29.2835 137.68 23.2042C137.814 22.5501 137.828 22.4461 137.724 22.8772C137.754 22.7582 137.784 22.6246 137.814 22.5057C137.054 25.2257 135.268 27.4405 133.527 29.5956C131.815 31.7063 130.044 33.8317 128.824 36.2694C128.199 37.5329 127.737 38.7516 127.44 40.1191C126.576 44.1026 126.011 48.2644 125.341 52.2777C124.79 55.5478 124.076 58.8772 123.793 62.1917C123.57 64.778 124.314 67.2157 126.056 69.1628C129.672 73.2058 135.477 74.3206 140.671 74.3355C146.104 74.3355 151.611 73.3693 156.998 74.4544C159.752 75.0191 162.431 76.1636 164.366 78.2447C166.316 80.3405 168.176 83.4767 167.968 86.4345C167.983 86.3009 167.998 86.1819 167.998 86.0481C168.221 84.5914 168.459 83.1497 168.682 81.6931C169.59 76.5353 170.483 71.3626 171.391 66.205C171.376 66.2793 171.361 66.3387 171.346 66.4131C171.376 66.2942 171.406 66.1604 171.436 66.0414C170.2 70.7979 164.619 71.452 160.541 71.6896C160.437 71.6896 159.856 75.2125 159.946 74.7665C159.498 77.2509 159.066 79.7381 158.651 82.228C158.234 84.7104 157.802 87.2075 157.415 89.6897C157.371 90.0018 156.998 92.7961 156.969 92.7961C159.469 92.6476 162.104 92.5138 164.351 91.3246C165.304 90.8193 166.182 90.1207 166.852 89.2586C167.878 87.9209 168.072 86.3155 168.37 84.6955C169.278 79.7309 170.126 74.7516 170.93 69.7724C171.198 68.0927 171.674 66.3091 171.599 64.5848C171.54 63.3362 171.108 62.1324 170.572 61.0175C169.516 58.8623 168.057 56.8557 166.048 55.5031C161.97 52.783 156.701 52.7088 151.983 52.9168C146.997 53.1398 141.877 53.7343 136.995 52.3519C134.375 51.6087 131.8 50.3157 129.91 48.324C128.02 46.3322 127.187 43.8202 127.41 41.0853C127.395 41.2191 127.38 41.3381 127.38 41.4717C127.752 38.0084 127.216 41.1151 125.773 50.7764C123.942 60.3783 123.421 63.4701 124.21 60.0811C124.18 60.2 124.15 60.3338 124.121 60.4528C124.924 57.3016 126.785 54.6409 128.794 52.1289C130.729 49.7063 132.991 47.3131 134.033 44.3256C134.539 42.8689 134.748 41.2934 135.015 39.792C136.087 33.8615 137.248 27.8862 138.007 21.911C138.186 20.4543 138.081 19.0275 137.412 17.7047C136.34 15.6089 134.227 14.2712 132.113 13.3644C129.583 12.2646 126.829 11.6254 124.136 11.0456C120.796 10.3328 117.416 9.82645 114.015 9.5294C107.198 8.90535 100.322 9.02429 93.5049 9.63367C85.7953 10.3173 78.1451 11.7295 70.7331 13.9738C70.5544 14.0333 70.0633 17.4221 70.1378 17.0507C69.6903 19.5351 69.2587 22.0224 68.8429 24.5123C68.426 26.9945 67.9944 29.4916 67.6075 31.9738C67.5182 32.5238 67.4289 33.0738 67.3544 33.6236C67.2204 34.0845 67.1609 34.5749 67.1162 35.0656Z" fill="#FBECFF"/>
<path id="Vector_7" d="M137.619 23.1277C136.766 25.5421 135.135 27.5816 133.533 29.5611C132.127 31.3157 130.66 33.0704 129.507 35.0048C129.507 35.0048 129.523 35.0048 129.523 35.02H129.493C129.238 35.4399 129.014 35.8596 128.789 36.2947C128.161 37.5693 127.727 38.9041 127.427 40.2838C127.427 40.3138 127.412 40.3587 127.412 40.3887C127.397 40.5686 127.382 40.8536 127.337 41.2584C127.143 43.9729 127.966 46.4774 129.852 48.4718C130.209 48.8448 130.589 49.1954 130.989 49.5216C132.216 47.962 133.339 46.3124 133.982 44.4378C134.491 42.9681 134.701 41.3785 134.97 39.8638C136.048 33.8801 137.215 27.8515 137.978 21.8229C137.993 21.7629 137.993 21.688 137.993 21.6279C137.888 22.1228 137.739 22.6328 137.619 23.1277ZM137.754 22.7978C137.784 22.6628 137.799 22.5877 137.814 22.5577C137.784 22.6328 137.769 22.7226 137.754 22.7978Z" fill="url(#paint2_linear_766_7264)"/>
<path id="Vector_8" d="M171.457 66.4592C171.442 66.5039 171.442 66.5337 171.427 66.5784C171.442 66.5039 171.457 66.4443 171.472 66.3696C171.472 66.3994 171.472 66.4292 171.457 66.4592C171.472 66.3696 171.502 66.28 171.517 66.2056C170.28 70.979 164.69 71.6355 160.606 71.874C160.502 71.874 159.921 75.4096 160.01 74.962C159.98 75.141 159.95 75.3051 159.921 75.484C159.95 75.4989 159.995 75.5138 160.025 75.5287C160.01 75.5436 159.995 75.5587 159.98 75.5587C159.95 75.5736 159.921 75.6034 159.891 75.6183C159.488 77.8857 159.086 80.1681 158.698 82.4504C158.281 84.9415 157.849 87.4477 157.461 89.9387C157.416 90.252 157.044 93.0565 157.014 93.0565C159.518 92.9074 162.156 92.7731 164.407 91.5797C165.361 91.0726 166.24 90.3714 166.911 89.5061C167.939 88.1637 168.133 86.5526 168.431 84.9266C169.341 79.9442 170.19 74.9471 170.995 69.9499C171.189 68.7565 171.472 67.5184 171.606 66.2952C171.561 66.3845 171.517 66.4741 171.457 66.5635V66.4592Z" fill="url(#paint3_linear_766_7264)"/>
<path id="Vector_9" d="M171.948 75.7672C169.071 77.1945 165.254 75.3593 165.254 75.3593C165.254 75.3593 166.102 71.2104 168.98 69.7851C171.856 68.3578 175.672 70.191 175.672 70.191C175.672 70.191 174.824 74.3397 171.948 75.7672Z" fill="url(#paint4_linear_766_7264)"/>
<path id="Vector_10" d="M49.55 37.8477C53.8795 40.4437 60.0915 38.044 60.0915 38.044C60.0915 38.044 59.2793 31.4358 54.9468 28.8427C50.6171 26.2464 44.408 28.6435 44.408 28.6435C44.408 28.6435 45.2202 35.2514 49.55 37.8477Z" fill="url(#paint5_linear_766_7264)"/>
<path id="Vector_11" d="M59.9265 48.8648C58.07 48.8648 56.565 50.3705 56.565 52.2278C56.565 54.0851 58.07 55.5908 59.9265 55.5908C61.7831 55.5908 63.2881 54.0851 63.2881 52.2278C63.2881 50.3705 61.7831 48.8648 59.9265 48.8648Z" fill="#B89BBF"/>
<path id="Vector_12" d="M43.5634 116.235C41.4491 116.235 39.7352 114.521 39.7352 112.406C39.7352 110.29 41.4491 108.576 43.5634 108.576C45.6776 108.576 47.3916 110.29 47.3916 112.406C47.3916 114.521 45.6776 116.235 43.5634 116.235Z" fill="#B89BBF"/>
<path id="Vector_13" d="M142.905 43.7146C141.919 43.7146 141.119 42.9144 141.119 41.9274C141.119 40.9403 141.919 40.1401 142.905 40.1401C143.892 40.1401 144.692 40.9403 144.692 41.9274C144.692 42.9144 143.892 43.7146 142.905 43.7146Z" fill="#B89BBF"/>
<path id="Vector_14" d="M35.1194 34.0704C33.8508 34.0704 32.8225 33.0416 32.8225 31.7725C32.8225 30.5034 33.8508 29.4746 35.1194 29.4746C36.3879 29.4746 37.4163 30.5034 37.4163 31.7725C37.4163 33.0416 36.3879 34.0704 35.1194 34.0704Z" fill="#E1E4E5"/>
<path id="Vector_15" d="M26.9339 90.4065C25.1016 90.4065 23.6162 88.9204 23.6162 87.0873C23.6162 85.2541 25.1016 83.7681 26.9339 83.7681C28.7663 83.7681 30.2517 85.2541 30.2517 87.0873C30.2517 88.9204 28.7663 90.4065 26.9339 90.4065Z" fill="#E1E4E5"/>
<path id="Vector_16" d="M151.529 29.4599C150.596 29.4599 149.84 28.7036 149.84 27.7707C149.84 26.8378 150.596 26.0815 151.529 26.0815C152.461 26.0815 153.217 26.8378 153.217 27.7707C153.217 28.7036 152.461 29.4599 151.529 29.4599Z" fill="#E1E4E5"/>
<path id="Vector_17" d="M163.846 43.3887C163.846 44.7815 162.718 45.9107 161.326 45.9107C159.933 45.9107 158.805 44.7815 158.805 43.3887C158.805 41.9958 159.933 40.8667 161.326 40.8667C162.718 40.8667 163.846 41.9958 163.846 43.3887Z" fill="#E1E4E5"/>
<path id="Vector_18" d="M59.9495 18.7953C59.017 18.7953 58.2611 18.0391 58.2611 17.1062C58.2611 16.1733 59.017 15.417 59.9495 15.417C60.882 15.417 61.6379 16.1733 61.6379 17.1062C61.6379 18.0391 60.882 18.7953 59.9495 18.7953Z" fill="#E1E4E5"/>
<path id="Vector_19" d="M147.333 101.713C145.908 101.713 144.753 100.788 144.753 99.6482C144.753 98.5079 145.908 97.5835 147.333 97.5835C148.757 97.5835 149.912 98.5079 149.912 99.6482C149.912 100.788 148.757 101.713 147.333 101.713Z" fill="#E1E4E5"/>
<path id="Vector_20" d="M49.7684 88.6152H49.8035C50.0126 91.6908 52.2142 91.7381 52.2142 91.7381C52.2142 91.7381 49.7864 91.7875 49.7864 95.3413C49.7864 91.7875 47.3586 91.7381 47.3586 91.7381C47.3586 91.7381 49.5593 91.6908 49.7684 88.6152Z" fill="#E1E4E5"/>
</g>
<defs>
<linearGradient id="paint0_linear_766_7264" x1="50.5132" y1="98.2579" x2="78.8118" y2="98.1318" gradientUnits="userSpaceOnUse">
<stop stop-color="white"/>
<stop offset="1" stop-color="#EEEEEE"/>
</linearGradient>
<linearGradient id="paint1_linear_766_7264" x1="14.7085" y1="54.179" x2="53.3594" y2="53.9344" gradientUnits="userSpaceOnUse">
<stop stop-color="white"/>
<stop offset="1" stop-color="#EEEEEE"/>
</linearGradient>
<linearGradient id="paint2_linear_766_7264" x1="143.983" y1="34.9799" x2="115.684" y2="35.1063" gradientUnits="userSpaceOnUse">
<stop stop-color="white"/>
<stop offset="1" stop-color="#EEEEEE"/>
</linearGradient>
<linearGradient id="paint3_linear_766_7264" x1="179.787" y1="79.0585" x2="141.137" y2="79.303" gradientUnits="userSpaceOnUse">
<stop stop-color="white"/>
<stop offset="1" stop-color="#EEEEEE"/>
</linearGradient>
<linearGradient id="paint4_linear_766_7264" x1="160.903" y1="80.2194" x2="184.634" y2="61.4564" gradientUnits="userSpaceOnUse">
<stop stop-color="white"/>
<stop offset="1" stop-color="#EEEEEE"/>
</linearGradient>
<linearGradient id="paint5_linear_766_7264" x1="66.3048" y1="46.2044" x2="31.4522" y2="13.8357" gradientUnits="userSpaceOnUse">
<stop stop-color="white"/>
<stop offset="1" stop-color="#EEEEEE"/>
</linearGradient>
</defs>
</svg>
