<svg width="200" height="134" viewBox="0 0 200 134" fill="none" xmlns="http://www.w3.org/2000/svg">
<g id="83">
<path id="Vector" d="M67.7502 43.5743C68.6842 39.7849 77.512 34.2508 82.2294 37.5873C83.6774 30.3682 85.0318 25.8665 89.7625 22.31C94.4934 18.7538 102.387 23.4023 103.654 33.1387C104.922 29.1363 111.368 23.742 116.546 28.2904C121.336 32.4993 121.817 39.5519 121.316 43.5677H67.7502V43.5743Z" fill="url(#paint0_linear_766_7223)"/>
<path id="Vector_2" d="M80.8907 48.5608C80.1462 45.5433 73.1118 41.1363 69.3527 43.7932C68.1989 38.0442 67.1196 34.4594 63.3498 31.6272C59.58 28.7954 53.29 32.497 52.2798 40.2505C51.2696 37.0632 46.1331 32.7675 42.0071 36.3898C38.1896 39.7414 37.8067 45.3576 38.2056 48.5555H80.8907V48.5608Z" fill="url(#paint1_linear_766_7223)"/>
<path id="Vector_3" d="M168.393 43.5744C167.634 40.498 160.463 36.0049 156.63 38.7137C155.454 32.8527 154.353 29.1976 150.51 26.3103C146.667 23.4231 140.254 27.1971 139.224 35.1019C138.194 31.8525 132.957 27.4728 128.751 31.1657C124.859 34.5828 124.468 40.3088 124.875 43.5691H168.393V43.5744Z" fill="url(#paint2_linear_766_7223)"/>
<path id="Vector_4" d="M77.7814 50.748L75.6461 98.1708H36.7881L40.8063 78.9236L53.7563 74.8347C54.0918 74.7165 54.3973 74.5261 54.6512 74.277C54.9052 74.0278 55.1013 73.7258 55.2259 73.3925L62.969 53.4995L77.7814 50.748Z" fill="#B89BBF"/>
<path id="Vector_5" d="M73.5007 55.7402L72.5311 72.8488L58.5069 74.1631L64.5482 56.3656L73.5007 55.7402ZM39.0971 78.9743L42.258 78.4741L40.416 84.9851L38.7884 84.8115C38.6147 84.7929 38.455 84.7074 38.3431 84.5731C38.2312 84.4388 38.1759 84.2662 38.1889 84.0918L38.5333 79.5843C38.545 79.434 38.607 79.292 38.7093 79.1814C38.8116 79.0707 38.9482 78.9977 39.0971 78.9743Z" fill="white"/>
<path id="Vector_6" d="M56.7666 69.5662C57.5219 70.2094 56.8406 76.0186 56.2999 75.9214C55.7615 75.8245 54.6084 75.6024 54.1415 75.2349C53.6746 74.8674 51.0519 70.166 51.6897 69.1909C52.3275 68.2159 56.1824 69.0658 56.7666 69.5662Z" fill="#B89BBF"/>
<path id="Vector_7" opacity="0.1" d="M56.7666 69.5662C57.5219 70.2094 56.8406 76.0186 56.2999 75.9214C55.7615 75.8245 54.6084 75.6024 54.1415 75.2349C53.6746 74.8674 51.0519 70.166 51.6897 69.1909C52.3275 68.2159 56.1824 69.0658 56.7666 69.5662Z" fill="black"/>
<path id="Vector_8" d="M76.7202 98.1708H156.608L151.859 39.9062H79.6369L76.7202 98.1708Z" fill="#B89BBF"/>
<path id="Vector_9" d="M157.011 100.733H35.0022V97.1011H157.011V100.733Z" fill="url(#paint3_linear_766_7223)"/>
<path id="Vector_10" d="M44.5059 101.157V96.2256L32.5699 95.4922L31.7041 101.157H44.5059ZM159.33 95.5582L151.883 96.3279V101.157H160.231L159.33 95.5582Z" fill="#DBDBDB" stroke="white" stroke-width="0.255222"/>
<path id="Vector_11" d="M124.633 101.831C124.633 101.831 125.768 93.4209 134.085 93.4209C142.402 93.4209 143.634 101.831 143.634 101.831" stroke="#E1E4E5" stroke-width="2.55244" stroke-miterlimit="10"/>
<path id="Vector_12" d="M134.136 93.6963C146.032 93.6963 146.053 112.191 134.136 112.191C122.24 112.191 122.219 93.6963 134.136 93.6963Z" fill="#B89BBF"/>
<path id="Vector_13" d="M134.136 98.7451C139.534 98.7451 139.544 107.14 134.136 107.14C128.735 107.14 128.727 98.7451 134.136 98.7451Z" fill="white"/>
<path id="Vector_14" d="M53.3713 101.831C53.3713 101.831 54.5067 93.4209 62.8236 93.4209C71.1407 93.4209 72.3729 101.831 72.3729 101.831" stroke="#E1E4E5" stroke-width="2.55244" stroke-miterlimit="10"/>
<path id="Vector_15" d="M62.8287 93.6963C74.7253 93.6963 74.7456 112.191 62.8287 112.191C50.9322 112.191 50.9118 93.6963 62.8287 93.6963Z" fill="#B89BBF"/>
<path id="Vector_16" d="M62.8289 98.7451C68.2273 98.7451 68.2376 107.14 62.8289 107.14C57.428 107.14 57.4204 98.7451 62.8289 98.7451Z" fill="white"/>
<path id="Vector_17" d="M124.761 76.4474C120.135 80.3028 112.632 80.3028 108.007 76.4474M106.135 60.5747V63.1756M127.01 60.5747V63.1756" stroke="white" stroke-width="3.34145" stroke-linecap="round" stroke-linejoin="round"/>
</g>
<defs>
<linearGradient id="paint0_linear_766_7223" x1="93.466" y1="56.1634" x2="93.7554" y2="-3.31285" gradientUnits="userSpaceOnUse">
<stop stop-color="white"/>
<stop offset="1" stop-color="#EEEEEE"/>
</linearGradient>
<linearGradient id="paint1_linear_766_7223" x1="60.3987" y1="58.586" x2="60.1683" y2="11.2229" gradientUnits="userSpaceOnUse">
<stop stop-color="white"/>
<stop offset="1" stop-color="#EEEEEE"/>
</linearGradient>
<linearGradient id="paint2_linear_766_7223" x1="147.501" y1="53.7953" x2="147.266" y2="5.50775" gradientUnits="userSpaceOnUse">
<stop stop-color="white"/>
<stop offset="1" stop-color="#EEEEEE"/>
</linearGradient>
<linearGradient id="paint3_linear_766_7223" x1="93.4049" y1="102.769" x2="93.4082" y2="93.1487" gradientUnits="userSpaceOnUse">
<stop stop-color="white"/>
<stop offset="1" stop-color="#EEEEEE"/>
</linearGradient>
</defs>
</svg>
