<svg width="177" height="59" viewBox="0 0 177 59" fill="none" xmlns="http://www.w3.org/2000/svg">
<g id="Group">
<g id="Group_2">
<g id="Group_3">
<path id="Vector" d="M103.408 33.6826C110.712 35.9685 109.23 42.9492 107.848 46.2374C106.179 50.2138 105.002 53.1503 105.002 53.1503C105.002 53.1503 103.143 50.3569 100.847 46.7071C98.95 43.6927 96.5736 37.1391 103.408 33.6826Z" fill="#FBECFF" stroke="#FBECFF" stroke-width="1.87414" stroke-miterlimit="10" stroke-linecap="round" stroke-linejoin="round"/>
<g id="Group_4">
<path id="Vector_2" d="M104.879 52.4042C104.412 49.2643 104.235 46.147 104.027 43.0321C103.842 39.9098 103.737 36.8251 103.405 33.6826C104.09 35.127 104.435 36.697 104.727 38.2494C105.027 39.8093 105.169 41.3843 105.274 42.9593C105.434 46.1093 105.387 49.2693 104.879 52.4042Z" fill="#FBECFF"/>
</g>
</g>
<g id="Group_5">
<path id="Vector_3" d="M118.196 31.7717C113.126 32.4223 108.321 33.3894 103.675 34.9695C101.349 35.7256 99.0673 36.6299 96.8383 37.6849C94.5719 38.6897 92.4354 39.9456 90.1289 41.1212C91.7682 39.1418 93.6948 37.3558 95.8913 35.9717C98.0403 34.5047 100.437 33.4296 102.893 32.5856C105.364 31.7717 107.928 31.2442 110.515 31.091C113.091 30.9202 115.712 31.0508 118.196 31.7717Z" fill="#FBECFF"/>
</g>
<g id="Group_6">
<path id="Vector_4" d="M93.3229 39.7503C84.2346 36.0527 80.0614 44.1864 78.7745 48.5748C77.2177 53.8826 76.0083 57.7535 76.0083 57.7535C76.0083 57.7535 80.1114 56.5026 85.334 54.7567C89.6546 53.3174 97.3061 48.7582 93.3229 39.7503Z" fill="#FBECFF" stroke="#FBECFF" stroke-width="1.87414" stroke-miterlimit="10" stroke-linecap="round" stroke-linejoin="round"/>
<g id="Group_7">
<path id="Vector_5" d="M76.7332 57.1156C78.8722 53.6793 81.3985 50.5318 84.1023 47.5451C85.4717 46.0681 86.8835 44.6212 88.4153 43.2999C89.9396 41.9786 91.5189 40.6824 93.3231 39.7505C91.8263 41.1044 90.4519 42.5438 89.0825 43.9957L85.0218 48.3942C82.3006 51.3231 79.6268 54.2947 76.7332 57.1156Z" fill="#FBECFF"/>
</g>
</g>
</g>
<g id="Group_8">
<path id="Vector_6" d="M20.2387 34.0039C18.4071 41.4695 11.3853 40.3994 8.03681 39.2112C3.98866 37.7719 1 36.7696 1 36.7696C1 36.7696 3.66378 34.7374 7.14969 32.2154C10.0309 30.128 16.398 27.3522 20.2387 34.0039Z" fill="#FBECFF" stroke="#FBECFF" stroke-width="1.87414" stroke-miterlimit="10" stroke-linecap="round" stroke-linejoin="round"/>
<g id="Group_9">
<path id="Vector_7" d="M1.73462 36.6013C4.82321 35.9457 7.90933 35.5789 10.9904 35.187C14.079 34.8153 17.1376 34.5264 20.2387 34.0039C18.8468 34.7776 17.3075 35.2172 15.7832 35.6015C14.2539 35.9959 12.6971 36.2345 11.1403 36.433C8.01927 36.7796 4.87818 36.9203 1.73462 36.6013Z" fill="#FBECFF"/>
</g>
</g>
<g id="Group_10">
<path id="Vector_8" d="M44.0829 34.6297C36.6538 36.461 34.3398 29.7113 33.8351 26.177C33.2254 21.9042 32.7256 18.7793 32.7256 18.7793C32.7256 18.7793 35.7517 20.2086 39.5899 22.1453C42.766 23.7429 48.166 28.1263 44.0829 34.6297Z" fill="#FBECFF" stroke="#FBECFF" stroke-width="1.87414" stroke-miterlimit="10" stroke-linecap="round" stroke-linejoin="round"/>
<g id="Group_11">
<path id="Vector_9" d="M33.2158 19.3555C35.2249 21.8021 36.9791 24.3819 38.7533 26.9416C40.515 29.5189 42.1867 32.1087 44.0834 34.6307C42.7565 33.749 41.657 32.5835 40.6075 31.4028C39.5504 30.2222 38.6184 28.9461 37.7213 27.6525C35.9721 25.0375 34.3903 22.3045 33.2158 19.3555Z" fill="#FBECFF"/>
</g>
</g>
<g id="Group_12">
<g id="Group_13">
<path id="Vector_10" d="M176.67 46.4021C170.078 44.6915 163.878 41.5993 158.271 37.6856C152.708 33.7218 147.678 28.8611 144.07 23.0459C149.18 27.5574 154.247 31.8176 159.705 35.6308C165.123 39.5017 170.847 42.8703 176.67 46.4021Z" fill="#FBECFF"/>
</g>
<g id="Group_14">
<g id="Group_15">
<path id="Vector_11" d="M147.108 26.3879C135.533 28.5155 132.595 17.9376 132.14 12.4641C131.593 5.84507 131.108 0.999512 131.108 0.999512C131.108 0.999512 135.626 3.47127 141.346 6.79711C146.074 9.55021 153.965 16.7746 147.108 26.3879Z" fill="#FBECFF" stroke="#FBECFF" stroke-width="1.87414" stroke-miterlimit="10" stroke-linecap="round" stroke-linejoin="round"/>
<g id="Group_16">
<path id="Vector_12" d="M131.805 1.93213C134.436 5.99648 136.845 10.1562 139.334 14.2658L143.07 20.4176C144.347 22.4473 145.639 24.4669 147.108 26.3885C145.254 24.8186 143.732 22.8994 142.278 20.9652C140.816 19.0285 139.514 16.9838 138.262 14.9139C135.801 10.7491 133.574 6.44863 131.805 1.93213Z" fill="#FBECFF"/>
</g>
</g>
<g id="Group_17">
<path id="Vector_13" d="M161.831 40.7065C159.634 49.7571 151.123 48.4835 147.062 47.0542C142.152 45.3259 138.531 44.1202 138.531 44.1202C138.531 44.1202 141.75 41.6485 145.968 38.5814C149.451 36.0443 157.155 32.6607 161.831 40.7065Z" fill="#FBECFF" stroke="#FBECFF" stroke-width="1.87414" stroke-miterlimit="10" stroke-linecap="round" stroke-linejoin="round"/>
<g id="Group_18">
<path id="Vector_14" d="M139.418 43.9152C143.164 43.2144 146.907 42.7848 150.643 42.3025L156.241 41.6092C158.105 41.3606 159.964 41.1018 161.828 40.71C160.126 41.5992 158.265 42.1091 156.415 42.5613C154.561 43.021 152.677 43.3099 150.796 43.551C147.022 43.9831 143.224 44.189 139.418 43.9152Z" fill="#FBECFF"/>
</g>
</g>
<g id="Group_19">
<path id="Vector_15" d="M162.878 39.0401C154.721 34.614 158.102 26.6587 160.506 23.0716C163.412 18.7335 165.491 15.5156 165.491 15.5156C165.491 15.5156 167.056 19.2735 168.94 24.1493C170.497 28.1835 171.803 36.5331 162.878 39.0401Z" fill="#FBECFF" stroke="#FBECFF" stroke-width="1.87414" stroke-miterlimit="10" stroke-linecap="round" stroke-linejoin="round"/>
<g id="Group_20">
<path id="Vector_16" d="M165.465 16.436C165.19 20.2567 164.655 24.0071 164.176 27.7599L163.426 33.3792C163.194 35.2556 162.974 37.127 162.879 39.0386C162.454 37.1572 162.434 35.2179 162.469 33.3063C162.496 31.3872 162.694 29.4831 162.939 27.5891C163.473 23.8136 164.238 20.0658 165.465 16.436Z" fill="#FBECFF"/>
</g>
</g>
</g>
</g>
</g>
</svg>
