<svg width="481" height="37" viewBox="0 0 481 37" fill="none" xmlns="http://www.w3.org/2000/svg">
<path d="M0.271484 9.23798C6.32122 7.78104 12.5684 7.14047 18.8105 7.22588C25.0427 7.37157 31.3373 8.44673 37.1222 10.9838L39.2786 11.9609C39.9783 12.3251 40.633 12.7773 41.3127 13.1818L43.3268 14.4427L45.1535 15.97C45.7507 16.4925 46.4004 16.9622 46.9527 17.5349L48.5344 19.3386C49.0542 19.9665 49.604 20.4865 50.0987 21.2049C50.5235 21.9057 50.8884 22.6267 51.2182 23.3703C51.8579 24.8599 52.3327 26.4725 52.3427 28.1957C52.3777 29.9013 51.7055 31.7677 50.3686 32.9584C49.0042 34.1365 47.5549 34.8599 45.7107 35.1312C43.8391 35.3171 42.0074 34.4153 40.8404 33.1116C38.414 30.4816 37.8743 26.8418 38.2216 23.5712C38.6364 20.2504 40.0633 17.1431 42.0449 14.5507C46.078 9.33341 51.9079 6.06286 57.8277 3.86741C63.75 1.64684 70.1121 0.373247 76.4817 0.333056C82.8363 0.237601 89.1059 1.08163 95.2806 2.1693C107.637 4.41751 119.649 7.87896 131.599 11.363C143.551 14.8547 155.458 18.4166 167.465 21.544C191.432 27.8189 215.948 32.4409 240.637 32.4133C265.325 32.4334 289.842 27.8189 313.808 21.5415C325.815 18.4141 337.72 14.8547 349.674 11.363C361.624 7.87896 373.636 4.40746 385.993 2.16428C392.168 1.07661 398.437 0.230068 404.792 0.328035C411.161 0.368226 417.526 1.6418 423.448 3.86488C429.368 6.06033 435.198 9.3309 439.231 14.5507C441.213 17.1456 442.64 20.2529 443.054 23.5737C443.402 26.8468 442.859 30.4841 440.436 33.1191C439.266 34.4254 437.434 35.3271 435.56 35.1412C433.716 34.8699 432.267 34.1465 430.9 32.9684C429.563 31.7752 428.888 29.9063 428.926 28.2007C428.936 26.4775 429.411 24.8648 430.05 23.3753C430.38 22.6292 430.745 21.9108 431.17 21.2074C431.665 20.489 432.214 19.9691 432.734 19.3411L434.316 17.5375C434.868 16.9647 435.52 16.4975 436.115 15.9725L437.944 14.4453L439.958 13.1842C440.638 12.7798 441.293 12.3277 441.992 11.9634L444.149 10.9863C449.934 8.44919 456.228 7.37661 462.46 7.22841C468.705 7.14551 474.95 7.78603 481 9.24296C474.91 7.97191 468.665 7.52481 462.48 7.7961C456.308 8.09 450.126 9.29571 444.556 11.8956L442.482 12.8903C441.812 13.2596 441.19 13.7143 440.543 14.1187L438.626 15.3772L436.902 16.8894C436.342 17.4043 435.723 17.8665 435.21 18.4242L433.749 20.1751C433.286 20.7553 432.717 21.3431 432.339 21.9133C431.969 22.5538 431.642 23.2371 431.357 23.9279C430.218 26.6257 429.88 29.9842 432.007 31.7652C432.969 32.6117 434.478 33.2774 435.705 33.4055C436.972 33.4935 438.204 32.8905 439.094 31.8606C440.933 29.8084 441.458 26.6685 441.095 23.8224C440.69 20.9286 439.398 18.178 437.569 15.8494C433.854 11.1646 428.349 8.12016 422.649 6.10305C416.886 4.04074 410.864 2.92291 404.782 2.96813C398.685 2.95808 392.57 3.85984 386.525 5.01534C374.421 7.41175 362.516 10.9964 350.592 14.4905C338.672 18.0324 326.745 21.6596 314.68 24.8598C290.596 31.2804 265.805 36.0984 240.644 36.1787C215.486 36.0908 190.692 31.2779 166.608 24.8573C154.544 21.6571 142.617 18.0298 130.697 14.488C118.77 10.9938 106.868 7.39921 94.7633 5.00783C88.7161 3.85484 82.6014 2.95053 76.5042 2.96058C70.4219 2.91536 64.3997 4.03319 58.6373 6.0955C52.9374 8.11261 47.4324 11.1571 43.7166 15.8444C41.8875 18.173 40.5931 20.9236 40.1883 23.8199C39.8234 26.6684 40.3507 29.8084 42.1873 31.8632C43.0794 32.8931 44.3113 33.4959 45.5808 33.408C46.8077 33.2799 48.3171 32.6117 49.2816 31.7652C51.4107 29.9817 51.0708 26.6207 49.9313 23.9228C49.6439 23.232 49.3165 22.5489 48.9492 21.9083C48.5719 21.3381 48.0022 20.7503 47.5399 20.17L46.0755 18.4192C45.5608 17.859 44.9436 17.3993 44.3838 16.8844L42.6596 15.3721L40.7405 14.1136C40.0933 13.7067 39.4711 13.2546 38.8014 12.8853L36.7273 11.8906C31.1574 9.29073 24.9752 8.08747 18.803 7.79357C12.6058 7.51977 6.3612 7.96693 0.271484 9.23798Z" fill="#FBECFF"/>
</svg>
