<svg width="24" height="24" viewBox="0 0 24 24" fill="none" xmlns="http://www.w3.org/2000/svg">
<g id="call_FILL1_wght200_GRAD0_opsz24">
<path id="Vector" d="M18.9308 20C17.2449 20 15.5167 19.5779 13.7462 18.7337C11.9756 17.8894 10.3276 16.7045 8.80193 15.1789C7.28909 13.6532 6.11057 12.0083 5.26635 10.2442C4.42212 8.48012 4 6.75512 4 5.06922C4 4.76922 4.1 4.51602 4.3 4.3096C4.5 4.1032 4.75 4 5.05 4H7.52308C7.79488 4 8.03206 4.08557 8.23463 4.25672C8.43719 4.42787 8.57437 4.64742 8.64615 4.91537L9.1423 7.3C9.18847 7.57948 9.18013 7.82372 9.1173 8.0327C9.05448 8.24167 8.94359 8.41282 8.78463 8.54615L6.59037 10.5923C7.00064 11.3372 7.45417 12.0292 7.95098 12.6683C8.44776 13.3074 8.97756 13.9128 9.54037 14.4846C10.1212 15.0654 10.7462 15.6054 11.4154 16.1048C12.0846 16.6042 12.8192 17.0756 13.6192 17.5192L15.7577 15.3423C15.9205 15.1667 16.1035 15.051 16.3067 14.9952C16.5099 14.9394 16.7346 14.9282 16.9808 14.9615L19.0846 15.3923C19.3564 15.459 19.5769 15.5958 19.7462 15.8029C19.9154 16.0099 20 16.2474 20 16.5154V18.95C20 19.25 19.8968 19.5 19.6904 19.7C19.484 19.9 19.2308 20 18.9308 20Z" fill="#ADAEB5"/>
</g>
</svg>
