<svg width="24" height="25" viewBox="0 0 24 25" fill="none" xmlns="http://www.w3.org/2000/svg">
<g id="home_work_FILL1_wght200_GRAD0_opsz24">
<path id="Vector" d="M16 20.5V11.8327C16 11.5635 15.942 11.3128 15.826 11.0808C15.7099 10.8487 15.5442 10.6603 15.3288 10.5154L10.3846 6.96922V5.48845C10.3846 5.22435 10.4843 4.99358 10.6837 4.79615C10.883 4.59872 11.1167 4.5 11.3846 4.5H21C21.268 4.5 21.5016 4.59967 21.701 4.79902C21.9003 4.99839 22 5.23205 22 5.5V19.5C22 19.768 21.9003 20.0016 21.701 20.201C21.5016 20.4003 21.268 20.5 21 20.5H16ZM17.2308 17.2692H18.7692V15.7308H17.2308V17.2692ZM17.2308 13.2692H18.7692V11.7308H17.2308V13.2692ZM17.2308 9.26922H18.7692V7.73078H17.2308V9.26922ZM2 19.6923V12.8327C2 12.5763 2.05898 12.3288 2.17693 12.0904C2.29488 11.8519 2.46154 11.6603 2.67693 11.5154L7.06152 8.40193C7.34742 8.20321 7.66025 8.10385 8 8.10385C8.33975 8.10385 8.65258 8.20321 8.93848 8.40193L13.3231 11.5154C13.5385 11.6603 13.7051 11.8519 13.8231 12.0904C13.941 12.3288 14 12.5763 14 12.8327V19.6923C14 19.9244 13.9234 20.117 13.7702 20.2702C13.617 20.4234 13.4244 20.5 13.1923 20.5H9.84615V15.4231H6.15385V20.5H2.80768C2.57563 20.5 2.383 20.4234 2.2298 20.2702C2.0766 20.117 2 19.9244 2 19.6923Z" fill="#ADAEB5"/>
</g>
</svg>
