<svg width="110" height="39" viewBox="0 0 110 39" fill="none" xmlns="http://www.w3.org/2000/svg">
<g id="layer1 2" clip-path="url(#clip0_483_6033)">
<g id="layer1">
<g id="Group 101">
<path id="path3723-1-6-7-4-6-8-3-2-7-6-7-1-0-6" d="M55.9239 14.9488C55.8963 14.9044 55.9575 10.3871 55.9575 10.3871L67.2361 3.4082L67.1656 8.06809L55.9222 14.9477L55.9239 14.9488Z" fill="#AD5A86"/>
<path id="path3717-2-7-80-7-0-27-7-4-2-0-5-8" d="M59.7851 13.5889C64.1691 17.4045 62.5171 24.1597 57.8638 26.3126C56.6066 27.039 54.6863 26.9129 51.1311 26.9156L51.0815 19.3375C51.2655 20.2607 51.255 22.2831 52.2859 22.8034C52.2859 22.8034 53.7513 22.8072 54.7089 22.8078C55.5024 22.7853 56.2651 22.4968 56.8734 21.989C57.4816 21.4811 57.8999 20.7838 58.0603 20.0098C58.2208 19.2358 58.1141 18.4306 57.7575 17.7245C57.4009 17.0184 56.8153 16.4529 56.0955 16.1195C55.7932 15.9961 55.9199 15.8569 56.1363 15.7357L59.7851 13.5889Z" fill="#AD5A86"/>
<path id="path3723-1-6-7-4-6-8-3-2-7-46-5-80-7-0-3-9" d="M56.5801 33.4379L62.0942 33.4439L68.6655 25.7523L65.4506 23.0112L58.1501 31.5684C57.3208 32.4746 56.5796 33.4373 56.5796 33.4373L56.5801 33.4379Z" fill="#AD5A86"/>
<path id="path3723-1-6-7-4-6-8-3-2-7-46-5-80-7-2-3-8-5" d="M75.487 10.3232L71.3018 13.8966L71.3689 26.9174C71.3689 26.9174 75.6032 26.9585 75.6032 26.8938C75.6032 26.839 75.5431 16.6684 75.52 12.7595C75.5558 11.5337 75.4875 10.3232 75.4875 10.3232H75.487Z" fill="#AD5A86"/>
<path id="path3715-9-9-7-6-2-4-9-1-8-5-8-7-7-2-5-5-6" d="M47.2076 18.0425C49.8509 19.1505 49.0876 22.6996 45.9867 22.6744H38.8999C38.4803 24.0258 37.3398 26.8957 37.3398 26.8957C37.3398 26.8957 44.4145 26.9434 45.9856 26.8848C49.6482 26.8848 51.8581 24.7763 52.655 21.5506L52.726 21.2935C53.4314 17.5491 51.5696 16.0947 49.9175 14.9922L47.2076 18.0425Z" fill="#AD5A86"/>
<path id="path3723-1-6-7-4-5-05-6-0-8-7-8-7" d="M6.17495 10.1458L13.8455 10.1118C13.8455 10.1118 13.8978 14.0459 13.8328 14.0459L4.74097 14.0113C4.95518 13.4313 6.09565 10.3448 6.17275 10.1458H6.17495Z" fill="#AD5A86"/>
<path id="path3715-9-9-7-6-2-4-9-1-8-5-8-7-7-9-8-2" d="M30.6396 18.0203C33.2828 19.1283 32.5196 22.6775 29.4187 22.6523H23.0373C22.7475 23.4335 22.316 24.1551 21.7642 24.781V26.8643C21.7642 26.8643 27.3597 26.9399 29.4143 26.8643C33.0763 26.8643 35.2868 24.7558 36.0836 21.5301L36.1547 21.2729C36.8601 17.5286 34.9982 16.0742 33.3462 14.9717L30.6396 18.0203Z" fill="#AD5A86"/>
<path id="path3715-9-9-7-6-2-4-9-1-8-5-8-7-7-8-6-4-3" d="M18.507 17.9911C21.1502 19.0991 20.3826 22.668 17.2817 22.6428C16.7145 22.6823 1.54143 22.6526 1.54143 22.6526C1.06564 24.1707 -0.000488281 26.8411 -0.000488281 26.8411C5.51793 26.8356 11.5711 26.852 17.2817 26.835C18.213 26.8777 19.1425 26.7184 20.0058 26.3681C20.8692 26.0179 21.6458 25.4851 22.2819 24.8066C22.851 24.1647 23.2973 23.4244 23.5986 22.6225C23.7399 22.2562 23.8576 21.8814 23.951 21.5003L24.0221 21.2432C24.7275 17.4988 22.8656 16.0444 21.2136 14.9419L18.507 17.9911Z" fill="#AD5A86"/>
<path id="path3723-1-6-7-4-5-05-6-0-8-7-8-3-7" d="M38.9237 29.4837L46.5942 29.4497C46.5942 29.4497 46.6465 33.3838 46.5816 33.3838L37.4897 33.3492C37.704 32.7692 38.8444 29.6827 38.9215 29.4837H38.9237Z" fill="#AD5A86"/>
<path id="path3725-3-5-2-4-5-4-4-0-6-3" d="M28.2767 9.78827C28.6138 9.78424 28.9484 9.84696 29.2609 9.9728C29.5735 10.0986 29.8578 10.2851 30.0973 10.5213C30.3368 10.7575 30.5268 11.0387 30.6562 11.3486C30.7855 11.6586 30.8517 11.991 30.8509 12.3266C30.8501 12.6623 30.7822 12.9944 30.6513 13.3037C30.5204 13.6129 30.329 13.8932 30.0883 14.1282C29.8476 14.3632 29.5624 14.5483 29.2492 14.6726C28.936 14.7968 28.6012 14.8579 28.2641 14.8522C27.5959 14.8409 26.9591 14.5683 26.4912 14.0934C26.0234 13.6184 25.762 12.9792 25.7637 12.314C25.7653 11.6488 26.0299 11.0109 26.5001 10.5383C26.9704 10.0657 27.6086 9.79626 28.2767 9.78827Z" fill="#AD5A86"/>
</g>
<g id="_2266004459808">
<path id="Path 1" fill-rule="evenodd" clip-rule="evenodd" d="M91.0399 18.5267C92.2016 18.27 94.0698 16.8189 94.8924 14.5005C96.1404 10.9815 95.0129 5.32288 89.5551 2.10001C89.384 1.98427 89.1831 1.92025 88.9766 1.91566C88.77 1.91108 88.5667 1.96613 88.391 2.07417C82.8709 4.79955 82.8217 9.07845 83.1385 11.3617C83.5061 13.1391 84.2639 14.6804 85.6071 15.5101C84.5268 13.5297 84.442 12.9206 84.3301 11.5741C84.3169 9.98674 84.7568 8.42911 85.5985 7.0826C86.4402 5.7361 87.6492 4.65615 89.0845 3.96853C96.8869 8.5441 93.1728 16.9641 91.0399 18.5267Z" fill="#AD5A86" stroke="#AD5A86" stroke-width="2"/>
<path id="Path 2" fill-rule="evenodd" clip-rule="evenodd" d="M91.8618 19.6046C92.4867 20.615 94.4773 21.9026 96.9484 21.9239C100.699 21.9558 105.701 19.0561 106.968 12.8705C107.022 12.672 107.017 12.4622 106.953 12.2663C106.89 12.0704 106.771 11.8969 106.611 11.7667C101.278 6.53998 95.9635 9.98754 95.2999 10.6319L95.3134 11.7837C95.3134 11.7837 100.447 8.5978 105.037 13.0339C103.257 21.8689 94.0438 21.1071 91.8618 19.6046Z" fill="#AD5A86" stroke="#AD5A86" stroke-width="2"/>
<path id="Path 3" fill-rule="evenodd" clip-rule="evenodd" d="M90.2319 26.2056C91.3533 29.771 95.6629 33.6323 101.963 32.9535C102.169 32.944 102.368 32.8753 102.536 32.7557C102.704 32.6361 102.833 32.4706 102.909 32.2793C106.266 25.635 101.341 21.6428 100.519 21.2127L99.4191 21.5736C99.4191 21.5736 104.042 25.4729 101.212 31.1727C95.8453 31.7687 92.9309 28.8125 91.5724 25.6734C90.9312 24.1132 89.7664 25.2445 90.2319 26.2056Z" fill="#AD5A86" stroke="#AD5A86" stroke-width="2"/>
<path id="Path 4" fill-rule="evenodd" clip-rule="evenodd" d="M80.2454 29.7852C80.3128 31.4388 80.7337 33.0597 81.4801 34.5398C81.5567 34.731 81.6872 34.8962 81.8559 35.0155C82.0246 35.1347 82.2242 35.2029 82.4307 35.2119C89.8468 36.2206 92.0223 30.2841 92.1652 29.3706L91.4586 28.455C91.4586 28.455 89.2688 34.0738 82.9252 33.2566C82.1114 31.5518 81.8476 30.4204 81.9192 29.1983C81.971 28.2783 80.4056 27.6868 80.2454 29.7852Z" fill="#AD5A86" stroke="#AD5A86" stroke-width="2.00119"/>
</g>
</g>
</g>
<defs>
<clipPath id="clip0_483_6033">
<rect width="110" height="39" fill="white"/>
</clipPath>
</defs>
</svg>
