<svg width="24" height="25" viewBox="0 0 24 25" fill="none" xmlns="http://www.w3.org/2000/svg">
<g id="mail_FILL1_wght200_GRAD0_opsz24">
<path id="Vector" d="M4.61538 19.5C4.15513 19.5 3.77083 19.3458 3.4625 19.0375C3.15417 18.7292 3 18.3449 3 17.8846V7.11537C3 6.65512 3.15417 6.27083 3.4625 5.9625C3.77083 5.65417 4.15513 5.5 4.61538 5.5H19.3846C19.8449 5.5 20.2292 5.65417 20.5375 5.9625C20.8458 6.27083 21 6.65512 21 7.11537V17.8846C21 18.3449 20.8458 18.7292 20.5375 19.0375C20.2292 19.3458 19.8449 19.5 19.3846 19.5H4.61538ZM12 12.4596C12.0833 12.4596 12.1612 12.4471 12.2337 12.4221C12.3061 12.3971 12.3776 12.366 12.4481 12.3288L19.6769 7.59615C19.7718 7.53847 19.8333 7.45994 19.8615 7.36057C19.8897 7.26122 19.8846 7.16219 19.8462 7.06348C19.8205 6.93526 19.7365 6.84231 19.5942 6.78463C19.4519 6.72693 19.3141 6.73846 19.1808 6.81922L12 11.5L4.81922 6.81922C4.68589 6.73846 4.55128 6.72148 4.41538 6.76828C4.27948 6.81508 4.1923 6.90706 4.15385 7.04422C4.11538 7.14679 4.11025 7.25097 4.13845 7.35675C4.16667 7.46252 4.22821 7.54232 4.32308 7.59615L11.5519 12.3288C11.6224 12.366 11.6939 12.3971 11.7663 12.4221C11.8388 12.4471 11.9167 12.4596 12 12.4596Z" fill="#ADAEB5"/>
</g>
</svg>
