<svg xmlns="http://www.w3.org/2000/svg" width="13.405" height="19.157" viewBox="0 0 13.405 19.157">
  <path id="callIcon" d="M160.3,19.149a4.325,4.325,0,0,1-2.389-1.19,19.316,19.316,0,0,1-4.033-5.419,30.2,30.2,0,0,1-3.107-7.147,6.408,6.408,0,0,1-.157-3.257,1.923,1.923,0,0,1,1.612-1.58c.855-.15,1.7-.362,2.548-.533a.858.858,0,0,1,1.095.583q.82,2,1.61,4.012a.874.874,0,0,1-.37,1.192c-.418.288-.868.535-1.267.847a.681.681,0,0,0-.255.541,11.4,11.4,0,0,0,2.46,4.7.466.466,0,0,0,.64.13c.439-.217.9-.393,1.357-.573a.888.888,0,0,1,1.235.357q1.188,1.751,2.356,3.516a.929.929,0,0,1-.173,1.39A14.978,14.978,0,0,1,160.3,19.149Z" transform="translate(-150.465 0.008)" fill="#5e6282"/>
</svg>
