<svg id="location" xmlns="http://www.w3.org/2000/svg" width="19.306" height="21.603" viewBox="0 0 19.306 21.603">
  <path id="Path_5" data-name="Path 5" d="M287.106,0a5.005,5.005,0,0,1,5,5.006q0,2-5.16,12.514L286.3,16.09Q282.1,6.725,282.1,5.006A5.007,5.007,0,0,1,287.106,0Zm-.156,2.5a2.5,2.5,0,1,0,2.5,2.5,2.5,2.5,0,0,0-2.5-2.5Z" transform="translate(-277.356 0)" fill="#5e6282"/>
  <path id="Path_6" data-name="Path 6" d="M86.006,640.124c0,3.361-6.048,3.863-9.653,3.863s-9.653-.5-9.653-3.863c0-2.506,3.372-3.422,6.581-3.724l.546,1.909c-3.017.262-5.2.971-5.2,1.815,0,1.068,3.458,1.932,7.724,1.932s7.721-.863,7.721-1.932c0-.843-2.176-1.553-5.2-1.815l.546-1.909C82.634,636.7,86.006,637.618,86.006,640.124Z" transform="translate(-66.7 -622.384)" fill="#bbbdcc"/>
</svg>
