<svg id="login" xmlns="http://www.w3.org/2000/svg" width="21.605" height="21.528" viewBox="0 0 21.605 21.528">
  <path id="login-2" data-name="login" d="M80.173,74.82a.618.618,0,0,1,0-.859l7.032-7.238a.579.579,0,0,1,.834,0l1.4,1.439a.618.618,0,0,1,0,.859L86.11,72.443h8.958a.6.6,0,0,1,.59.608v2.426a.6.6,0,0,1-.59.608h-9.2l3.572,3.678a.618.618,0,0,1,0,.859l-1.4,1.439a.579.579,0,0,1-.834,0Z" transform="translate(-74.054 -63.661)" fill="#5e6282"/>
  <path id="login-3" data-name="login" d="M114.838,65.489h-5.081V81.041h5.081v2.987h-6.574a1.492,1.492,0,0,1-1.493-1.5V64a1.493,1.493,0,0,1,1.493-1.5h6.574Z" transform="translate(-106.77 -62.5)" fill="#bbbdcc"/>
</svg>
