<svg xmlns="http://www.w3.org/2000/svg" xmlns:xlink="http://www.w3.org/1999/xlink" width="199.751" height="71.139" viewBox="0 0 199.751 71.139">
  <defs>
    <linearGradient id="linear-gradient" x1="0.5" x2="0.5" y2="1" gradientUnits="objectBoundingBox">
      <stop offset="0" stop-color="#5e6282"/>
      <stop offset="1" stop-color="#5e6282"/>
    </linearGradient>
  </defs>
  <g id="layer1" transform="translate(5.574 -101.703)">
    <g id="Group_101" data-name="Group 101" transform="translate(-23.341 10.212)">
      <path id="path3723-1-6-7-4-6-8-3-2-7-6-7-1-0-6" d="M151.658,118.758c-.05-.081.061-8.321.061-8.321L172.2,97.707l-.128,8.5-20.417,12.549Z" transform="translate(-32.338)" fill="url(#linear-gradient)"/>
      <path id="path3717-2-7-80-7-0-27-7-4-2-0-5-8" d="M155.873,122.191h0c7.961,6.96,4.961,19.282-3.489,23.209-2.283,1.325-5.77,1.095-12.226,1.1l-.09-13.823c.334,1.684.315,5.373,2.187,6.322,0,0,2.661.007,4.4.008a6.4,6.4,0,0,0,2.518-12.2c-.549-.225-.319-.479.074-.7Z" transform="translate(-29.541 -5.914)" fill="url(#linear-gradient)"/>
      <path id="path3723-1-6-7-4-6-8-3-2-7-46-5-80-7-0-3-9" d="M153.233,163.871l10.013.011,11.933-14.03-5.838-5-13.257,15.609c-1.506,1.653-2.852,3.409-2.852,3.409Z" transform="translate(-32.721 -11.388)" fill="url(#linear-gradient)"/>
      <path id="path3723-1-6-7-4-6-8-3-2-7-46-5-80-7-2-3-8-5" d="M196.079,114.338l-7.6,6.518.122,23.751s7.689.075,7.689-.043c0-.1-.109-18.652-.151-25.782.065-2.236-.059-4.444-.059-4.444Z" transform="translate(-41.234 -4.017)" fill="url(#linear-gradient)"/>
      <path id="path3715-9-9-7-6-2-4-9-1-8-5-8-7-7-2-5-5-6" d="M125.086,131.132c4.8,2.021,3.414,8.495-2.217,8.449H110c-.762,2.465-2.833,7.7-2.833,7.7s12.847.087,15.7-.02c6.651,0,10.664-3.846,12.111-9.73l.129-.469c1.281-6.83-2.1-9.483-5.1-11.494Z" transform="translate(-21.594 -6.731)" fill="url(#linear-gradient)"/>
      <path id="path3723-1-6-7-4-5-05-6-0-8-7-8-7" d="M31.721,113.892l13.929-.062s.095,7.176-.023,7.176l-16.51-.063c.389-1.058,2.46-6.688,2.6-7.051Z" transform="translate(-2.741 -3.895)" fill="url(#linear-gradient)"/>
      <path id="path3715-9-9-7-6-2-4-9-1-8-5-8-7-7-9-8-2" d="M86.311,131.079c4.8,2.021,3.414,8.495-2.217,8.449H72.506a12.4,12.4,0,0,1-2.312,3.883v3.8s10.161.138,13.892,0c6.65,0,10.664-3.846,12.111-9.73l.129-.469c1.281-6.83-2.1-9.483-5.1-11.494Z" transform="translate(-12.905 -6.718)" fill="url(#linear-gradient)"/>
      <path id="path3715-9-9-7-6-2-4-9-1-8-5-8-7-7-8-6-4-3" d="M51.374,131.007c4.8,2.021,3.406,8.531-2.225,8.485-1.03.072-28.583.018-28.583.018-.864,2.769-2.8,7.64-2.8,7.64,10.021-.01,21.013.02,31.383-.011a11.686,11.686,0,0,0,9.08-3.7,12.794,12.794,0,0,0,2.391-3.984,16.869,16.869,0,0,0,.64-2.047l.129-.469c1.281-6.83-2.1-9.483-5.1-11.494Z" transform="translate(0 -6.7)" fill="url(#linear-gradient)"/>
      <path id="path3723-1-6-7-4-5-05-6-0-8-7-8-3-7" d="M110.13,160.4l13.929-.062s.095,7.176-.023,7.176l-16.51-.063c.389-1.058,2.46-6.688,2.6-7.051Z" transform="translate(-21.681 -15.129)" fill="url(#linear-gradient)"/>
      <path id="path3725-3-5-2-4-5-4-4-0-6-3" d="M84.01,113.052a4.619,4.619,0,1,1-.023,9.237A4.619,4.619,0,0,1,84.01,113.052Z" transform="translate(-14.895 -3.707)" fill="url(#linear-gradient)"/>
    </g>
    <g id="_2266004459808" transform="matrix(0.848, -0.53, 0.53, 0.848, 116.834, 129.169)">
      <path id="Path_1" data-name="Path 1" d="M6.266,28.1c2.039.72,6.323.273,9.835-2.52,5.33-4.24,9.07-14.071,3.778-24.3A1.944,1.944,0,0,0,18.11.121C6.964-.973,2.746,5.594,1.024,9.428-.13,12.529-.454,15.64.813,18.214c.252-4.1.711-5.123,1.842-7.312A15.28,15.28,0,0,1,17.345,3.716C24.941,18.29,11.066,27.735,6.266,28.1Z" transform="translate(26.763 0)" fill="#5e6282" stroke="#5e6282" stroke-width="2" fill-rule="evenodd"/>
      <path id="Path_2" data-name="Path 2" d="M0,10.669c-.015,2.162,1.806,6.065,5.593,8.473,5.748,3.654,16.261,3.98,24.2-4.361a1.943,1.943,0,0,0,.518-2.049C27.152-.471,15.627-.251,13.981.107L12.887,1.9s10.994.011,13.773,11.278C15.366,25.12,1.908,15.088,0,10.669Z" transform="translate(33.249 19.902)" fill="#5e6282" stroke="#5e6282" stroke-width="2" fill-rule="evenodd"/>
      <path id="Path_3" data-name="Path 3" d="M.464,1.628c-1.723,6.589,1.181,16.7,11.547,21.707a1.945,1.945,0,0,0,2.11-.133C25.727,16.16,22,5.254,21.151,3.8L19.106,3.3s3.35,10.471-6.528,16.561C3.73,15.623,2.1,8.252,3.045,2.094,3.567-.934.677-.305.464,1.628Z" transform="translate(23.897 37.593)" fill="#5e6282" stroke="#5e6282" stroke-width="2" fill-rule="evenodd"/>
      <path id="Path_4" data-name="Path 4" d="M.794,14.7a21.214,21.214,0,0,0,7.187,5.332,1.945,1.945,0,0,0,2.11-.133C21.7,12.855,17.966,1.95,17.121.491L15.076,0s3.35,10.471-6.528,16.561c-3.1-1.488-4.768-2.791-6.067-4.606C1.5,10.591-1.384,11.541.794,14.7Z" transform="matrix(0.326, 0.946, -0.946, 0.326, 19.175, 29.601)" fill="#5e6282" stroke="#5e6282" stroke-width="2" fill-rule="evenodd"/>
    </g>
  </g>
</svg>
