<svg xmlns="http://www.w3.org/2000/svg" width="24.113" height="24.11" viewBox="0 0 24.113 24.11">
  <path id="search" d="M23.884,22.8l-6.228-6.126a9.843,9.843,0,0,0,2.633-6.691A10.064,10.064,0,0,0,10.146,0,10.063,10.063,0,0,0,0,9.984a10.066,10.066,0,0,0,10.146,9.984,10.21,10.21,0,0,0,6.384-2.23l6.249,6.148a.792.792,0,0,0,1.1,0A.756.756,0,0,0,23.884,22.8ZM10.146,18.43A8.516,8.516,0,0,1,1.56,9.984a8.518,8.518,0,0,1,8.586-8.451,8.517,8.517,0,0,1,8.581,8.451,8.515,8.515,0,0,1-8.581,8.446Z" transform="translate(0 0)" fill="#bbbdcc"/>
</svg>
